<?xml version="1.0" encoding="utf-8"?>
<svg viewBox="0 0 710.5358 432.5374" width="710.5358" height="432.5374" xmlns="http://www.w3.org/2000/svg" xmlns:bx="https://boxy-svg.com">
  <defs>
    <style bx:fonts="Architects Daughter">@import url(https://fonts.googleapis.com/css2?family=Architects+Daughter%3Aital%2Cwght%400%2C400&amp;display=swap);</style>
    <style>
		.s0 { fill: #000000 }
	</style>
  </defs>
  <g id="Layer" class="s0" style="" transform="matrix(0.7985129952430724, 0, 0, 0.7985129952430724, 90.23707715030127, 24.482883818192477)">
    <path d="M 70.581 99.345 C 83.806 85.365 97.605 72.753 111.982 60.342 M 72.172 97.895 C 82.179 89.116 91.829 78.558 110.777 59.637 M 78.18 103.452 C 87.149 92.437 94.056 84.669 109.188 61.638 M 79.53 104.931 C 85.676 93.366 92.779 83.327 111.436 59.716 M 32.572 157.716 C 58.444 133.791 81.801 103.608 128.125 56.589 M 31.19 158.704 C 54.957 135.479 76.733 109.861 127.391 57.096 M 37.937 165.355 C 67.384 131.637 93.801 97.642 126.247 58.354 M 39.133 164.328 C 58.302 141.195 75.603 118.858 126.22 57.198 M 31.987 173.989 C 61.673 142.802 92.16 108.606 109.216 91.89 M 31.232 174.154 C 47.283 157.78 62.269 139.827 109.946 90.196 M 39.534 181.791 C 54.019 162.904 69.939 142.243 111.639 91.284 M 39.685 181.044 C 54.671 161.703 68.688 142.353 110.636 91.481 M 114.816 77.769 C 125.229 69.382 135.247 59.528 139.641 55.42 M 116.225 77.773 C 121.502 72.186 127.266 65.938 139.86 56.442 M 124.401 85.926 C 128.819 74.163 134.586 64.304 139.189 55.168 M 121.893 84.323 C 129.236 75.754 134.968 65.816 139.882 56.79 M 31.066 191.009 C 56.315 165.136 81.703 136.916 97.557 120.254 M 31.798 188.748 C 52.784 166.336 75.928 143.822 96.006 122.549 M 37.98 195.276 C 53.472 177.205 69.697 158.114 96.49 120.642 M 38.169 195.073 C 53.1 175.819 69.29 155.701 96.612 122.561 M 128.557 76.515 C 136.966 68.071 147.063 64.108 155.834 56.995 M 129.086 76.434 C 136.91 71.7 142.335 64.923 155.661 54.074 M 135.53 84.209 C 141.464 78.346 144.024 70.335 153.85 55.872 M 136.427 82.369 C 141.803 77.34 145.386 69.469 153.885 55.067 M 29.738 206.641 C 50.755 188.331 68.077 166.723 103.184 129.872 M 31.534 205.046 C 50.917 182.099 72.138 160.915 103.629 129.514 M 38.937 212.642 C 55.999 186.681 74.091 163.234 105.421 130.648 M 38.895 212.141 C 53.437 193.321 68.43 173.976 104.286 129.524 M 145.914 76.028 C 150.206 69.97 154.176 64.671 169.467 53.398 M 143.135 74.396 C 151.469 69.325 157.858 63.038 167.55 54.96 M 150.943 82.779 C 154.863 74.135 162.886 65.578 166.496 53.046 M 152.345 81.924 C 155.93 72.314 161.084 64.321 169.236 54.742 M 30.239 219.204 C 51.017 200.464 68.779 179.119 118.775 127.184 M 31.415 219.499 C 49.884 199.841 68.198 179.24 116.984 128.915 M 40.14 224.709 C 70.261 188.657 100.449 149.431 118.607 128.242 M 39.088 226.448 C 69.878 188.096 101.384 148.778 118.077 127.944 M 156.842 75.4 C 164.147 69.6 168.785 67.059 178.652 55.465 M 158.568 75.383 C 162.047 70.277 167.203 66.544 180.631 57.818 M 164.095 81.227 C 168.44 74.523 176.14 64.392 178.736 58.03 M 166.096 80.463 C 168.584 76.146 172.366 69.827 179.289 56.287 M 30.176 236.035 C 39.204 231.42 44.59 224.45 56.743 216.856 M 30.794 234.577 C 39.564 227.241 48.377 220.919 54.978 215.801 M 38.698 243.314 C 44.703 233.208 50.069 222.571 55.965 214.591 M 38.35 242.215 C 42.713 236.411 45.923 230.522 55.14 216.622 M 62.357 202.741 C 80.47 180.588 101.084 158.208 130.42 129.694 M 61.644 201.137 C 80.08 181.961 99.227 160.109 129.927 128.029 M 67.502 208.164 C 90.111 182.578 106.726 156.21 129.103 129.821 M 68.186 207.479 C 90.346 179.477 114.355 149.675 131.317 128.832 M 169.884 77.347 C 175.067 73.577 180.197 68.971 192.725 59.377 M 168.743 76.627 C 175.878 71.265 181.156 66.521 190.738 58.044 M 178.444 81.169 C 181.372 73.105 186.651 62.246 192.628 58.683 M 178.007 83.537 C 182.276 73.56 188.784 65.525 190.856 59.177 M 32.173 250.353 C 37.757 242.519 48.058 237.11 53.654 230.922 M 32.319 250.594 C 39.152 243.265 47.475 238.308 55.313 230.315 M 38.378 256.391 C 46.142 246.651 51.362 236.665 53.977 231.756 M 38.822 255.656 C 44.123 245.939 51.875 236.635 55.443 230.847 M 81.551 193.331 C 93.115 178.661 108.341 163.295 142.008 128.305 M 79.197 194.971 C 92.286 179.867 106.549 167.049 144.045 129.584 M 87.068 200.965 C 104.611 178.282 124.08 152.575 143.387 130.577 M 88.239 201.488 C 106.381 176.271 124.036 153.456 143.253 129.302 M 180.722 76.391 C 190.589 73.248 194.606 65.243 204.714 58.563 M 182.267 75.541 C 190.156 70.81 198.083 64.695 203.141 60.969 M 190.655 84.564 C 195.423 76.711 200.463 67.435 205.221 59.747 M 189.929 82.533 C 193.946 77.446 197.401 70.927 204.273 60.377 M 30.752 267.521 C 38.286 257.542 48.597 252.164 56.362 243.824 M 30.471 265.277 C 37.045 259.484 45.075 255.175 56.16 245.988 M 37.644 270.737 C 47.001 262.594 52.618 253.24 55.509 246.956 M 39.615 271.484 C 46.319 261.368 51.458 251.653 55.843 246.311 M 95.991 190.65 C 115.673 169.671 134.84 150.361 156.462 129.928 M 97.718 190.406 C 115.023 171.428 133.61 155.006 157.266 129.186 M 103.82 194.977 C 120.681 175.582 135.961 155.143 155.196 127.607 M 105.986 196.286 C 118.528 179.711 130.421 163.717 157.909 128.368 M 194 79.413 C 197.957 75.34 203.82 72.089 213.888 62.081 M 192.82 80.174 C 199.806 73.095 209.248 66.815 213.677 63.787 M 202.184 86.481 C 204.051 77.605 208.826 71.336 214.596 64.469 M 200.637 85.904 C 205.054 78.051 210.596 68.712 213.469 62.488 M 30.121 280.267 C 41.923 275.098 50.173 264.924 57.074 261.484 M 30.055 281.959 C 38.923 275.637 46.31 268.629 55.856 260.318 M 37.514 287.268 C 43.284 279.304 50.547 273.672 55.578 260.303 M 38.626 287.437 C 43.58 278.652 49.375 270.63 54.769 261.919 M 112.195 187.31 C 119.161 183.495 127.175 178.275 140.089 160.824 M 111.887 188.096 C 123.768 177.849 134.367 167.31 141.591 162.11 M 121.089 194.999 C 127.9 183.187 131.908 176.284 141.651 161.361 M 119.199 194.935 C 127.573 182.465 136.85 170.396 141.377 162.709 M 153.28 138.984 C 160.173 137.441 164.785 130.032 171.217 128.984 M 153.687 140.575 C 158.007 137.702 164.76 132.447 170.57 127.999 M 161.405 147.678 C 163.101 142.107 165.169 140.212 170.535 130.087 M 160.509 148.109 C 164.633 140.349 168.055 133.233 170.763 128.415 M 195.667 89.885 C 204.032 84.751 208.352 82.51 220.521 71.15 M 197.744 88.851 C 201.117 85.096 206.824 82.515 219.949 72.438 M 204.19 95.465 C 208.908 85.464 217.443 76.514 217.729 73.23 M 205.624 96.132 C 208.979 90.028 212.345 84.227 219.864 72.207 M 31.051 297.461 C 39.059 289.67 45.616 284.913 56.231 277.701 M 31.441 296.547 C 39.384 289.934 46.526 284.933 54.74 276.384 M 40.576 303.369 C 45.718 294.128 49.256 283.806 56.904 274.732 M 38.71 302.346 C 44.239 293.368 50.433 283.089 55.473 275.763 M 126.562 188.764 C 130.465 184.624 137.484 177.522 146.479 170.278 M 125.28 188.197 C 134.369 181.623 142.113 175.358 147.54 171.372 M 133.131 194.003 C 137.625 188.057 140.405 181.474 145.627 169.797 M 133.05 195.004 C 138.245 186.415 143.509 178.064 147.969 171.333 M 163.989 146.734 C 167.159 143.271 173.646 138.27 185.863 128.829 M 162.111 145.542 C 169.649 138.971 178.195 134.18 183.105 128.553 M 171.081 149.873 C 174.134 145.873 178.293 138.142 183.935 127.934 M 170.276 151.565 C 174.472 142.992 179.882 132.763 183.888 128.789 M 200.865 100.354 C 207.478 94.91 215.64 86.978 223.543 81.909 M 202.22 99.674 C 209.331 94.01 216.494 87.897 224.436 80.997 M 211.399 107.524 C 215.295 98.719 219.883 89.781 226.425 83.261 M 209.453 106.841 C 212.746 100.007 216.734 95.327 224.013 81.921 M 30.356 313.31 C 38.506 305.407 50.656 297.581 56.966 292.019 M 31.206 311.701 C 38.698 306.743 44.51 299.7 56.511 291.036 M 38.685 318.201 C 45.866 307.244 51.933 300.189 55.98 291.842 M 38.962 317.658 C 45.412 307.666 50.595 298.002 55.103 291.778 M 139.493 190.282 C 140.586 187.398 145.873 180.669 158.882 174.207 M 138.224 189.041 C 141.829 184.91 146.092 181.365 157.298 172.859 M 147.408 194.151 C 146.916 190.872 149.157 186.048 158.79 174.286 M 144.741 195.152 C 147.654 189.542 151.243 185.755 158.908 173.268 M 168.167 153.733 C 177.681 144.618 188.028 135.394 195.117 128.843 M 166.979 156.202 C 178.438 144.829 190.189 135.609 197.526 129.291 M 172.899 161.396 C 181.459 154.637 182.825 149.361 198.116 128.529 M 175.275 161.551 C 179.844 154.529 183.432 147.554 195.938 127.934 M 206.282 107.937 C 214.312 104.284 221.004 97.618 229.018 90.494 M 206.871 108.82 C 212.303 104.991 219.908 98.57 229.139 90.663 M 212.498 115.774 C 217.922 108.201 223.819 99.86 230.745 90.696 M 214.745 116.209 C 220.161 107.21 225.564 95.657 229.917 90.828 M 32.723 324.927 C 37.415 322.298 47.251 313.144 53.997 307.82 M 31.975 327.601 C 36.74 322.071 42.827 316.206 55.825 306.716 M 40.527 332.881 C 42.652 326.519 47.668 317.321 55.524 307.012 M 38.008 333.551 C 42.671 325.468 48.179 318.973 56.316 306.408 M 141.175 201.056 C 162.189 176.043 188.709 151.201 209.414 128.972 M 138.847 202.882 C 159.534 183.602 176.758 164.096 210.914 127.994 M 146.109 208.632 C 163.726 187.077 180.434 163.977 209.252 127.191 M 146.4 209.634 C 162.295 192.049 175.897 173.329 210.245 127.936 M 211.114 117.776 C 220.347 113.154 230.859 105.847 236.598 101.464 M 211.526 119.414 C 220.027 112.797 229.901 105.793 235.39 99.712 M 220.158 124.041 C 225.834 115.069 232.097 109.354 234.695 100.307 M 218.743 124.925 C 222.802 119.509 226.421 113.427 234.47 99.348 M 29.893 343.174 C 39.226 332.62 51.757 326.784 54.204 319.673 M 31.613 341.894 C 36.619 337.28 42.226 333.799 55.251 321.266 M 37.464 350.758 C 41.859 341.042 46.336 334.39 55.947 322.302 M 39.418 349.841 C 44.27 340.368 50.328 329.619 54.77 320.757 M 140.464 215.921 C 164.743 190.334 186.729 164.857 240.365 110.144 M 139.998 216.915 C 175.863 177.997 211.336 141.572 239.66 109.529 M 148.416 223.016 C 179.205 184.843 208.154 146.234 240.576 109.283 M 146.096 224.695 C 169.626 195.866 191.401 167.8 240.089 109.756 M 31.595 357.289 C 38.517 352.453 42.996 347.038 57.789 337.342 M 31.071 356.986 C 38.194 350.256 46.617 345.2 56.043 336.607 M 37.219 365.65 C 43.688 351.012 51.861 342.452 56.729 335.277 M 37.95 363.714 C 42.895 356.299 49.268 349.271 55.633 337.169 M 138.426 234.236 C 149.758 224.289 162.706 213.967 169.423 204.101 M 139.285 233.612 C 148.958 224.906 157.588 217.346 171.751 204.29 M 146.453 237.181 C 157.44 224.309 168.057 212.973 172.791 204.68 M 146.212 240.121 C 152.371 232.819 156.761 225.713 170.538 203.505 M 178.267 187.349 C 193.45 172.369 208.29 158.619 245.031 117.446 M 176.95 189.24 C 200.575 163.836 223.712 141.16 246.643 117.868 M 184.864 193.757 C 207.447 166.35 228.619 138.101 243.962 118.082 M 185.975 196.082 C 199.933 177.556 213.63 156.498 246.44 118.772 M 29.192 372.605 C 40.008 367.393 48.268 359.808 57.405 350.209 M 30.825 373.021 C 40.147 364.517 47.955 357.152 55.289 351.753 M 37.963 378.919 C 44.524 368.395 52.168 359.615 56.472 353.874 M 38.778 378.467 C 43.378 371.01 47.55 365.38 55.694 352.102 M 140.183 248.036 C 151.547 235.917 164.339 224.021 171.02 220.297 M 138.265 247.47 C 149.159 238.852 158.08 231.482 171.633 218.743 M 146.17 254.26 C 155.314 245.731 161.019 235.933 172.235 219.527 M 146.758 255.51 C 156.892 241.112 164.329 228.057 172.023 219.011 M 190.245 190.281 C 206.606 174.225 220.162 160.15 251.641 129.128 M 190.339 189.027 C 208.45 170.367 225.783 152.652 250.596 128.461 M 199.928 195.983 C 214.883 175.166 232.601 154.371 250.451 126.023 M 197.765 195.369 C 214.848 174.542 230.368 154.444 250.129 127.84 M 32.057 388.73 C 39.154 382.368 45.452 373.634 58.876 366.495 M 31.473 386.191 C 42.66 379.194 51.595 370.093 56.627 366.215 M 39.351 393.041 C 46.681 384.996 51.441 376.839 56.167 364.715 M 39.006 394.262 C 44.259 386.518 48.317 377.259 58.243 364.617 M 139.276 265.017 C 149.454 257.013 156.492 245.531 169.01 235.112 M 138.762 263.018 C 148.504 254.608 156.644 248.445 170.543 235.549 M 145.538 270.628 C 152.374 257.973 162.845 249.78 171.106 235.88 M 146.359 269.965 C 154.458 259.521 161.505 249.447 170.964 235.605 M 203.502 188.893 C 223.873 170.363 241.046 148.744 258.306 134.717 M 204.929 188.995 C 214.691 177.881 225.753 166.905 256.823 134.343 M 213.523 194.059 C 223.138 179.082 238.884 164.135 256.967 136.821 M 211.326 195.682 C 224.047 179.568 236.36 163.191 256.55 135.402 M 39.235 394.859 C 49.416 384.309 64.175 370.683 73.779 362.779 M 39.286 393.67 C 52.784 381.412 64.895 370.868 74.389 361.52 M 45.244 401.397 C 52.046 390.176 59.672 382.021 74.204 362.566 M 48 400.681 C 56.128 387.449 64.075 375.581 73.707 361.65 M 139.816 280.299 C 148.816 268.667 159.876 260.044 170.787 249.086 M 139.673 278.788 C 150.728 269.136 160.838 258.248 170.189 249.633 M 145.481 285.59 C 156.27 271.966 166.582 259.713 171.61 248.468 M 147.005 284.426 C 156.965 271.85 165.694 258.098 171.163 249.621 M 216.463 190.189 C 228.26 179.002 239.61 168.059 264.763 144.902 M 215.494 191 C 224.85 180.86 234.539 171.535 262.94 144.028 M 220.888 199.175 C 235.081 182.56 246.426 166.119 262.059 143.352 M 222.524 197.284 C 234.764 180.183 249.238 163.647 263.416 143.377 M 49.497 400.14 C 57.695 387.841 69.339 378.336 90.324 356.956 M 46.946 398.899 C 56.353 390.63 64.273 383.407 90.225 358.824 M 55.224 405.326 C 64.404 391.111 78.031 378.203 89.603 359.511 M 55.534 405.571 C 66.317 388.68 78.852 373.713 89.83 357.76 M 138.758 293.857 C 146.934 289.541 154.105 281.989 170.616 265.884 M 139.428 294.49 C 148.358 287.127 156.138 278.271 171.846 265.36 M 147.767 299.31 C 153.335 293.752 157.602 283.211 170.827 267.142 M 146.219 301.006 C 154.859 287.509 164.52 273.616 169.988 264.826 M 228.331 193.501 C 240.674 181.636 249.398 169.961 268.904 149.722 M 226.274 193.543 C 242.685 176.064 259.69 160.425 269.409 151.69 M 234.038 198.851 C 246.375 180.597 263.88 161.485 270.432 149.844 M 234.693 199.082 C 248.411 182.798 260.99 165.43 269.279 151.348 M 57.079 407.567 C 71.948 390.944 89.266 373.834 106.747 357.215 M 55.286 405.477 C 72.886 387.749 91.282 369.651 104.504 355.888 M 64.339 412.006 C 73.873 397.401 86.972 378.948 103.415 357.924 M 63.537 412.934 C 74.485 396.404 86.987 381.072 105.073 356.117 M 139.933 308.795 C 144.623 304.273 151.387 296.371 171.673 282.561 M 140.016 309.266 C 146.961 301.296 155.568 295.068 170.378 280.794 M 145.037 315.078 C 151.928 306.2 160.83 292.656 170.742 279.145 M 147.087 315.257 C 155.114 303.816 163.553 290.364 170.398 280.694 M 235.282 196.081 C 244.351 188.308 255.038 181.894 274.841 159.097 M 237.168 197.355 C 250.977 182.215 266.194 168.162 275.593 159.698 M 241.961 202.526 C 255.689 191.292 264.877 175.285 277.009 160.404 M 244.826 204.213 C 252.742 191.388 261.308 178.586 275.599 159.087 M 30.51 448.36 C 34.717 446.025 38.056 442.57 47.108 438.261 M 31.862 447.672 C 36.283 445.149 38.925 442.733 46.264 439.137 M 37.951 453.182 C 40.319 451.397 41.216 447.477 46.608 438.63 M 38.778 453.576 C 42.705 448.565 44.906 442.703 46.521 438.646 M 65.285 411.642 C 78.184 396.527 95.485 377.283 118.802 355.899 M 64.234 410.001 C 81.105 393.74 97.551 376.164 119.011 356.041 M 72.051 415.612 C 91.068 394.835 106.597 370.033 119.014 355.447 M 71.496 416.468 C 89.337 394.931 105.774 371.877 119.713 354.736 M 138.019 324.039 C 149.606 315.536 161.073 302.051 169.373 295.128 M 139.29 324.339 C 150.509 314.415 161.041 304.562 170.238 296.914 M 146.174 332.499 C 151.504 323.214 155.748 315.804 171.404 295.319 M 147.131 330.986 C 153.446 321.965 160.412 310.692 171.213 296.863 M 246.893 202.267 C 253.14 195.128 262.422 185.624 278.954 172.589 M 246.531 200.065 C 255.246 194.369 262.2 185.949 278.071 171.768 M 253.914 207.783 C 262.135 195.001 270.822 178.134 277.253 172.522 M 253.844 208.1 C 263.729 193.331 274.07 179.995 278.979 171.665 M 33.765 460.129 C 43.354 452.09 53.463 445.572 60.884 438.636 M 36.567 459.093 C 43.47 452.618 51.927 444.634 59.692 439.476 M 44.572 466.83 C 45.463 461.026 49.006 451.427 59.335 438.973 M 43.027 465.444 C 49.717 455.293 55.09 446.021 59.972 438.732 M 71.521 414.616 C 85.195 399.8 101.179 386.069 130.779 354.439 M 72.717 415.838 C 86.126 401.904 97.81 388.707 132.248 355.034 M 82.466 422.195 C 98.611 399.313 115.599 377.574 130.707 353.403 M 80.778 423.15 C 97.875 400.752 114.4 376.336 133.122 355.78 M 139.636 338.084 C 146.462 330.084 154.669 324.441 172.151 311.699 M 138.583 339.391 C 147.652 331.832 153.863 326.884 170.468 311.287 M 146.512 345.797 C 155.603 334.873 163.75 320.675 172.316 313.076 M 147.484 346.029 C 154.168 336.503 160.439 324.601 170.938 310.371 M 254.909 204.175 C 258.732 202.493 266.99 195.651 280.021 184.004 M 254.774 205.441 C 262.827 199.788 268.412 195.248 280.279 186.277 M 260.946 210.839 C 270.548 201.763 276.34 193.682 280.621 185.143 M 262.531 213.489 C 267.272 205.189 272.292 197.845 279.129 185.268 M 49.707 459.341 C 54.301 453.288 60.321 452.187 73.259 440.476 M 49.155 457.801 C 55.425 454.885 59.463 450.152 73.144 438.891 M 57.57 463.336 C 61.537 457.626 68.35 447.505 71.93 440.288 M 56.569 465.061 C 60.937 456.04 67.49 449.18 72.938 440.075 M 81.85 420.623 C 109.311 390.75 139.521 359.802 170.983 326.783 M 80.736 422.184 C 101.609 398.683 122.226 376.02 170.46 325.877 M 89.646 427.89 C 111.492 400.755 133.672 371.875 170.799 325.741 M 87.386 428.177 C 118.766 391.586 149.139 354.623 169.545 326.26 M 254.969 221.48 C 258.897 215.665 264.751 211.609 279.631 202.371 M 256.019 222.036 C 261.838 216.145 269.165 210.305 280.633 201.072 M 264.239 229.525 C 265.614 221.698 273.391 214.125 281.101 202.512 M 262.268 228.002 C 268.524 217.797 275.79 208.256 279.136 200.378 M 61.628 458.987 C 92.258 428.935 120.385 394.705 168.184 340.868 M 62.129 459.727 C 105.235 412.879 147.156 366.48 170.3 341.81 M 69.351 464.877 C 110.071 417.339 150.01 369.324 169.257 341.79 M 69.12 466.625 C 97.749 430.168 127.983 393.542 170.13 342.481 M 255.81 238.917 C 259.86 233.433 269.967 224.697 280.656 216.373 M 255.301 237.644 C 261.914 232.539 266.496 227.533 278.817 217.205 M 262.403 243.282 C 268.938 234.354 273.694 228.935 280.718 215.237 M 262.958 244.15 C 266.571 238.733 269.404 232.683 279.664 216.403 M 76.17 460.735 C 82.838 449.247 92.519 442.167 109.093 426.793 M 76.124 459.173 C 87.733 447.936 100.476 434.811 111.261 425.494 M 81.488 463.768 C 91.923 452.474 102.274 437.728 108.968 426.323 M 83.153 465.683 C 88.427 456.051 95.315 447.596 110.596 425.1 M 110.49 421.673 C 132.47 396.596 157.281 369.403 173.457 355.723 M 110.006 418.781 C 127.355 402.275 144.088 384.096 172.312 355.912 M 117.825 427.128 C 131.852 408.076 144.017 389.826 171.405 356.205 M 117.893 425.411 C 130.165 408.558 143.035 391.867 171.388 354.525 M 255.559 253.118 C 265.878 242.831 273.377 239.069 280.155 232.461 M 255.046 252.404 C 264.94 244.136 274.905 236.619 278.782 232.713 M 263.64 260.314 C 264.384 252.16 268.416 248.739 279.874 231.744 M 262.059 258.986 C 265.547 253.467 270.397 247.38 278.631 231.65 M 86.915 458.147 C 95.72 454.219 102.911 447.006 110.632 437.392 M 87.781 458.978 C 97.565 451.927 106.192 444.568 112.207 438.548 M 93.909 465.962 C 102.481 455.013 108.286 447.896 113.258 438.887 M 94.97 465.065 C 99.954 460.226 102.126 453.841 111.646 439.846 M 122.799 420.382 C 147.162 393.914 170.979 370.451 184.066 356.202 M 123.14 419.298 C 142.925 397.799 163.563 377.678 185.548 354.681 M 130.312 427.259 C 141.336 409.47 155.005 394.571 184.173 356.883 M 130.335 426.162 C 145.308 406.356 159.057 388.496 185.172 355.096 M 253.97 267.342 C 260.724 263.425 265.534 257.526 280.031 248.055 M 254.254 267.37 C 263.699 259.997 271.748 253.968 277.845 247.169 M 263.042 275.286 C 266.668 266.669 270.965 258.94 277.628 246.458 M 262.067 273.999 C 266.379 266.937 272.919 258.707 278.032 248.175 M 102.608 459.441 C 107.039 456.009 112.697 449.719 125.112 438.599 M 101.366 459.403 C 106.675 454.906 113.876 450.326 124.839 439.863 M 109.72 466.019 C 114.089 455.767 120.353 448.958 125.648 438.822 M 109.191 466.506 C 112.658 458.757 116.381 453.334 125.747 439.653 M 136.907 418.468 C 158.768 395.684 182.621 370.774 197.75 354.176 M 136.418 420.299 C 150.088 405.782 162.809 392.374 197.814 356.623 M 141.975 424.81 C 162.418 399.695 182.405 374.992 196.112 357.881 M 142.429 426.304 C 159.239 406.935 174.921 386.526 197.384 356.108 M 254.247 283.316 C 258.671 277.65 266.006 273.683 280.799 260.572 M 254.228 283.374 C 261.928 275.93 270.285 269.218 280.154 262.063 M 260.626 290.115 C 267.91 280.111 272.223 272.254 277.309 262.981 M 261.38 290.426 C 267.277 282.607 272.114 275.15 280.106 262.873 M 116.769 458.228 C 125.028 450.882 130.719 446.521 137.522 439.034 M 114.06 458.604 C 123.184 451.804 129.808 447.491 139.339 439.572 M 123.25 465.738 C 128.933 459.525 129.452 451.429 137.94 440.935 M 122.089 466.568 C 127.032 456.337 132.23 449.576 139.176 440.057 M 149.956 419.916 C 171.071 397.563 193.055 371.91 209.62 356.565 M 148.208 419.75 C 167.183 400.847 186.187 380.597 210.977 357.607 M 154.769 427.955 C 171.077 404.847 187.688 388.778 209.146 356.306 M 157.634 426.21 C 172.871 405.17 187.999 384.561 209.983 356.834 M 253.816 298.647 C 262.196 294.13 267.593 284.577 279.885 276.814 M 253.18 299.44 C 262.088 291.857 269.792 285.879 279.451 278.584 M 262.628 306.595 C 269.223 294.24 273.614 283.827 279.154 278.306 M 261.301 305.698 C 268.26 294.789 274.276 283.271 278.69 278.34 M 125.788 459.247 C 135.123 454.63 142.289 446.893 152.911 439.877 M 128.602 460.171 C 136.933 453.561 143.756 446.549 150.636 440.677 M 135.705 466.046 C 140.276 457.056 143.873 453.566 149.996 440.594 M 135.499 465.248 C 139.251 461.035 143.494 453.708 150.955 439.468 M 162.62 419.085 C 177.74 402.502 193.741 386.127 220.351 358.923 M 163.094 420.3 C 182.642 400.478 200.626 380.375 221.152 358.447 M 170.182 427.24 C 186.746 402.082 204.483 380.092 222.763 357.9 M 169.629 426.936 C 184.317 409.421 197.325 391.181 221.179 359.497 M 253.63 313.313 C 262.869 308.182 271.296 302.638 279.556 292.448 M 253.538 313.276 C 262.121 307.51 271.036 299.758 279.007 293.095 M 262.817 320.891 C 266.615 316.209 268.291 309.826 280.242 294.285 M 261.353 319.929 C 267.867 310.972 274.753 300.884 279.15 294.346 M 142.903 460.095 C 150.492 453.964 157.682 444.255 165.829 438.414 M 141.266 458.871 C 146.616 456.398 151.967 452.192 163.846 440.599 M 149.133 464.726 C 155.48 456.588 157.548 447.94 163.176 441.271 M 148.786 465.718 C 154.958 457.603 158.257 449.294 164.294 440.713 M 173.791 418.211 C 188.115 407.115 202.26 392.519 232.116 360.911 M 174.568 420.791 C 194.747 401.525 213.379 381.882 232.644 360.377 M 183.918 425.088 C 195.01 408.014 210.933 388.152 233.947 360.512 M 182.999 425.729 C 197.825 408.684 210.542 388.767 233.37 360.735 M 255.551 328.681 C 263.045 323.122 269.431 316.269 276.953 310.264 M 253.323 330.29 C 261.987 322.987 269.137 315.59 279.657 309.398 M 259.866 334.558 C 264.697 329.14 271.388 321.235 280.53 307.895 M 260.652 336.933 C 266.325 328.137 271.279 320.966 278.413 308.098 M 153.6 460.513 C 160.845 453.322 165.453 450.177 179.729 441.319 M 153.262 459.923 C 163.322 453.401 170.063 445.191 177.678 440.46 M 161.833 465.709 C 165.534 458.065 168.321 452.974 179.749 439.829 M 162.255 465.605 C 164.481 460.487 168.998 454.431 177.997 440.321 M 187.206 420.393 C 209.884 400.458 226.045 379.467 243.994 363.578 M 189.651 419.238 C 206.925 402.204 224.081 385.703 245.35 364.333 M 196.525 424.786 C 215.656 399.514 235.036 376.391 244.593 363.379 M 195.859 427.011 C 207.332 413.777 216.72 399.877 244.547 362.891 M 254.285 346.978 C 258.923 339.525 265.841 333.468 278.127 322.44 M 254.091 345.064 C 260.294 340.831 266.045 335.139 277.832 324.995 M 261.293 350.011 C 265.928 343.671 271.992 335.145 276.878 325.504 M 261.845 351.699 C 269.237 341.905 275.98 330.872 279.003 324.505 M 168.864 460.351 C 175.843 452.332 183.267 445.442 188.943 438.391 M 167.986 458.969 C 174.628 453.229 183.166 447.503 190.407 440.821 M 173.604 465.029 C 179.328 460.866 184.152 452.83 192.856 440.255 M 174.397 466.956 C 181.766 455.758 187.044 446.253 190.429 440.259 M 202.852 418.873 C 214.45 409.323 224.941 396.51 255.911 364.835 M 202.303 420.113 C 214.446 406.644 228.548 391.817 256.698 366.423 M 208.803 427.764 C 222.679 407.733 236.431 390.585 257.435 366.597 M 209.265 427.66 C 219.61 412.62 232.057 396.506 256.231 365.48 M 254.754 362.312 C 261.707 352.773 268.064 348.831 277.97 338.018 M 254.3 360.374 C 262.403 353.664 271.898 346.017 277.489 340.562 M 260.833 365.545 C 265.637 358.184 271.289 351.485 278.991 338.34 M 260.486 367.408 C 266.186 361.082 270.63 354.024 278.973 339.649 M 180.59 460.844 C 188.967 454.359 192.994 449.783 204.644 440.291 M 180.43 459.35 C 186.32 454.884 192.718 449.346 203.834 439.417 M 189.152 464.112 C 192.638 454.97 201.774 448.692 204.485 439.396 M 189.297 465.517 C 194.172 456.405 200.416 447.968 203.489 439.666 M 201.093 434.092 C 218.93 419.34 234.796 400.542 279.848 355.151 M 201.552 435.4 C 222.012 415.442 240.567 395.347 278.864 355.628 M 209.929 442.649 C 223.21 424.433 239.074 405.011 279.27 354.826 M 209.336 442.065 C 231.849 414.127 252.886 386.829 278.694 354.888 M 193.388 459.457 C 200.894 451.859 208.622 445.895 227.406 426.892 M 194.602 459.972 C 202.243 452.665 212.388 443.739 227.31 427.942 M 199.728 466.121 C 209.271 452.99 218.272 440.375 228.607 426.484 M 200.321 466.219 C 212.263 451.5 222.024 437.235 227.097 428.78 M 234.251 413.828 C 242.716 404.964 251.788 393.276 279.269 369.636 M 231.856 415.317 C 248.786 398.529 265.616 382.703 277.715 370.248 M 238.763 422.979 C 251.789 408.644 261.615 390.44 277.885 370.057 M 239.309 421.948 C 248.137 411.653 254.906 400.279 279.025 369.952 M 206.365 459.273 C 214.299 451.476 222.75 447.176 230.49 441.398 M 207.182 460.174 C 215.304 452.75 222.985 447.86 231.412 439.642 M 213.153 466.854 C 219.409 458.964 223.312 451.12 231.594 441.122 M 214.95 465.71 C 218.995 458.535 224.738 449.423 231.591 440.216 M 261.349 395.669 C 267.901 391.658 273.419 387.369 277.375 385.15 M 262.876 396.323 C 266.877 392.071 271.091 389.683 278.527 385.446 M 269.833 401.303 C 274.027 395.183 277.331 391.611 279.238 384.32 M 270.333 401.218 C 272.048 398.686 273.85 394.849 278.682 385.596 M 218.132 458.632 C 229.302 451.693 237.214 448.157 243.497 442.422 M 219.021 460.929 C 226.852 454.533 234.482 446.805 242.733 441.011 M 227.534 465.148 C 233.357 461.083 238.293 451.248 242.547 442.423 M 228.285 466.713 C 230.125 461.923 234.2 456.543 243.814 440.218 M 232.665 461.794 C 238.134 455.536 244.424 449.635 255.733 438.717 M 233.224 459.982 C 240.167 455.693 246.826 450.107 257.805 440.742 M 241.281 467.941 C 248.35 456.126 252.05 448.059 257.115 438.816 M 241.233 466.546 C 245.266 459.988 248.604 453.436 256.48 441.147 M 245.374 458.619 C 254.427 454.045 260.685 450.516 272.116 439.626 M 246.046 458.954 C 252.96 455.799 258.84 450.871 270.954 440.596 M 255.058 466.59 C 261.523 458.988 264.801 449.59 270.654 440.547 M 254.505 465.695 C 258.558 458.84 262.782 453.189 269.696 441.08 M 261.53 459.529 C 266.407 456.204 274.502 448.459 277.607 447.669 M 260.382 459.502 C 264.206 456.599 268.637 453.223 277.86 446.736 M 265.575 467.079 C 269.619 460.18 271.763 456.148 277.562 447.699 M 267.777 467.533 C 271.384 459.082 274.762 454.217 276.92 446.899 M 273.157 460.48 C 274.58 460.708 276.266 462.29 277.663 462.402 M 273.261 459.88 C 273.934 460.648 274.987 460.946 277.337 462.726 M 280.599 466.501 C 279.574 465.592 279.162 464.742 277.426 462.144 M 280.822 466.338 C 279.712 465.591 278.829 463.976 277.697 462.766 " style="fill: none; stroke: rgb(0, 0, 0); stroke-width: 4px;"/>
  </g>
  <g id="Layer" class="s0" style="" transform="matrix(0.7985129952430724, 0, 0, 0.7985129952430724, 90.23707715030127, 24.482883818192477)">
    <path d="M 210.4 303.976 C 220.118 299.444 228.156 289.072 230.424 287.116 M 209.797 305.28 C 215.866 299.838 221.911 294.803 232.549 286.91 M 216.849 312.501 C 220.231 303.15 226.947 298.311 233.051 288.386 M 216.868 312.937 C 220.447 306.791 223.38 299.99 232.323 286.145 M 211.214 321.269 C 217.862 314.271 226.596 303.618 241.232 293.993 M 209.913 320.177 C 217.441 314.694 223.531 306.945 238.892 295.001 M 216.195 326.811 C 227.411 312.384 235.67 300.373 240.04 294.716 M 217.562 327.304 C 224.634 317.317 232.529 306.243 239.58 294.391 M 214.056 333.687 C 222.164 326.023 229.825 318.551 238.95 310.714 M 212.361 331.485 C 223.669 323.329 232.857 313.932 238.342 309.569 M 218.985 339.877 C 228.472 327.5 233.988 317.579 238.325 311.051 M 220.012 339.26 C 225.364 329.451 231.882 320.079 239.132 308.775 M 223.918 337.489 C 227.783 333.281 232.722 332.078 238.78 325.575 M 223.085 336.404 C 227.866 333.538 233.165 329.578 238.144 326.229 M 229.683 343.527 C 233.104 334.299 238.229 328.352 240.515 327.22 M 228.973 343.71 C 231.95 336.12 235.894 330.613 238.01 325.643 " style="fill: none; stroke: rgb(0, 0, 0); stroke-width: 4px;"/>
  </g>
  <path style="fill: rgb(51, 51, 51);" transform="matrix(0.9999999999999999, 0, 0, 0.9999999999999999, 0, 0)"/>
  <path d="M 363.688 312.007 L 334.702 312.007 L 334.702 209.957 L 363.688 209.957 L 363.688 312.007 Z M 379.413 312.007 L 382.368 209.957 L 421.814 209.957 L 436.427 266.811 L 437.465 266.811 L 452.078 209.957 L 491.445 209.957 L 494.399 312.007 L 466.451 312.007 L 465.972 281.743 L 465.413 242.616 L 464.215 242.616 L 449.363 299.95 L 424.45 299.95 L 409.517 242.616 L 408.24 242.616 L 407.761 281.823 L 407.361 312.007 L 379.413 312.007 Z M 502.462 312.007 L 529.292 255.872 L 529.292 261.86 L 503.58 209.957 L 534.083 209.957 L 549.574 244.213 L 551.011 244.213 L 566.582 209.957 L 597.086 209.957 L 571.294 261.86 L 571.294 255.872 L 598.204 312.007 L 567.062 312.007 L 551.011 275.275 L 549.574 275.275 L 533.604 312.007 L 502.462 312.007 Z" style="fill: rgb(51, 51, 51);" transform="matrix(0.9999999999999999, 0, 0, 0.9999999999999999, 0, 0)"/>
  <path d="M 334.303 312.406 L 334.303 209.558 L 364.088 209.558 L 364.088 312.406 L 334.303 312.406 Z M 363.289 210.356 L 335.102 210.356 L 335.102 311.608 L 363.289 311.608 L 363.289 210.356 Z M 381.98 209.558 L 422.124 209.558 L 436.737 266.412 L 437.155 266.412 L 451.768 209.558 L 491.833 209.558 L 494.81 312.406 L 466.058 312.406 L 466.052 312.013 L 465.573 281.749 L 465.02 243.016 L 464.524 243.016 L 449.672 300.349 L 424.141 300.349 L 409.209 243.016 L 408.634 243.016 L 408.16 281.829 L 407.755 312.406 L 379.002 312.406 L 381.98 209.558 Z M 406.968 311.608 L 407.361 281.818 L 407.845 242.217 L 409.826 242.217 L 424.758 299.55 L 449.054 299.55 L 463.906 242.217 L 465.807 242.217 L 466.371 281.737 L 466.844 311.608 L 493.988 311.608 L 491.057 210.356 L 452.388 210.356 L 437.775 267.21 L 436.117 267.21 L 421.505 210.356 L 382.756 210.356 L 379.825 311.608 L 406.968 311.608 Z M 527.391 258.923 L 502.936 209.558 L 534.341 209.558 L 549.832 243.814 L 550.754 243.814 L 566.325 209.558 L 597.73 209.558 L 573.199 258.923 L 598.838 312.406 L 566.8 312.406 L 550.75 275.675 L 549.836 275.675 L 533.866 312.406 L 501.829 312.406 L 527.391 258.923 Z M 533.342 311.608 L 549.312 274.876 L 551.273 274.876 L 567.323 311.608 L 597.569 311.608 L 572.311 258.916 L 596.441 210.356 L 566.84 210.356 L 551.269 244.613 L 549.316 244.613 L 533.825 210.356 L 504.223 210.356 L 528.279 258.916 L 503.095 311.608 L 533.342 311.608 Z" style="fill: none;" transform="matrix(0.9999999999999999, 0, 0, 0.9999999999999999, 0, 0)"/>
  <g id="g-1" class="s0" transform="matrix(0.7985129952430724, 0, 0, 0.7985129952430724, 87.08620582649405, 31.751583572500692)" style="">
    <path d="M 70.581 99.345 C 83.806 85.365 97.605 72.753 111.982 60.342 M 72.172 97.895 C 82.179 89.116 91.829 78.558 110.777 59.637 M 78.18 103.452 C 87.149 92.437 94.056 84.669 109.188 61.638 M 79.53 104.931 C 85.676 93.366 92.779 83.327 111.436 59.716 M 32.572 157.716 C 58.444 133.791 81.801 103.608 128.125 56.589 M 31.19 158.704 C 54.957 135.479 76.733 109.861 127.391 57.096 M 37.937 165.355 C 67.384 131.637 93.801 97.642 126.247 58.354 M 39.133 164.328 C 58.302 141.195 75.603 118.858 126.22 57.198 M 31.987 173.989 C 61.673 142.802 92.16 108.606 109.216 91.89 M 31.232 174.154 C 47.283 157.78 62.269 139.827 109.946 90.196 M 39.534 181.791 C 54.019 162.904 69.939 142.243 111.639 91.284 M 39.685 181.044 C 54.671 161.703 68.688 142.353 110.636 91.481 M 114.816 77.769 C 125.229 69.382 135.247 59.528 139.641 55.42 M 116.225 77.773 C 121.502 72.186 127.266 65.938 139.86 56.442 M 124.401 85.926 C 128.819 74.163 134.586 64.304 139.189 55.168 M 121.893 84.323 C 129.236 75.754 134.968 65.816 139.882 56.79 M 31.066 191.009 C 56.315 165.136 81.703 136.916 97.557 120.254 M 31.798 188.748 C 52.784 166.336 75.928 143.822 96.006 122.549 M 37.98 195.276 C 53.472 177.205 69.697 158.114 96.49 120.642 M 38.169 195.073 C 53.1 175.819 69.29 155.701 96.612 122.561 M 128.557 76.515 C 136.966 68.071 147.063 64.108 155.834 56.995 M 129.086 76.434 C 136.91 71.7 142.335 64.923 155.661 54.074 M 135.53 84.209 C 141.464 78.346 144.024 70.335 153.85 55.872 M 136.427 82.369 C 141.803 77.34 145.386 69.469 153.885 55.067 M 29.738 206.641 C 50.755 188.331 68.077 166.723 103.184 129.872 M 31.534 205.046 C 50.917 182.099 72.138 160.915 103.629 129.514 M 38.937 212.642 C 55.999 186.681 74.091 163.234 105.421 130.648 M 38.895 212.141 C 53.437 193.321 68.43 173.976 104.286 129.524 M 145.914 76.028 C 150.206 69.97 154.176 64.671 169.467 53.398 M 143.135 74.396 C 151.469 69.325 157.858 63.038 167.55 54.96 M 150.943 82.779 C 154.863 74.135 162.886 65.578 166.496 53.046 M 152.345 81.924 C 155.93 72.314 161.084 64.321 169.236 54.742 M 30.239 219.204 C 51.017 200.464 68.779 179.119 118.775 127.184 M 31.415 219.499 C 49.884 199.841 68.198 179.24 116.984 128.915 M 40.14 224.709 C 70.261 188.657 100.449 149.431 118.607 128.242 M 39.088 226.448 C 69.878 188.096 101.384 148.778 118.077 127.944 M 156.842 75.4 C 164.147 69.6 168.785 67.059 178.652 55.465 M 158.568 75.383 C 162.047 70.277 167.203 66.544 180.631 57.818 M 164.095 81.227 C 168.44 74.523 176.14 64.392 178.736 58.03 M 166.096 80.463 C 168.584 76.146 172.366 69.827 179.289 56.287 M 30.176 236.035 C 39.204 231.42 44.59 224.45 56.743 216.856 M 30.794 234.577 C 39.564 227.241 48.377 220.919 54.978 215.801 M 38.698 243.314 C 44.703 233.208 50.069 222.571 55.965 214.591 M 38.35 242.215 C 42.713 236.411 45.923 230.522 55.14 216.622 M 62.357 202.741 C 80.47 180.588 101.084 158.208 130.42 129.694 M 61.644 201.137 C 80.08 181.961 99.227 160.109 129.927 128.029 M 67.502 208.164 C 90.111 182.578 106.726 156.21 129.103 129.821 M 68.186 207.479 C 90.346 179.477 114.355 149.675 131.317 128.832 M 169.884 77.347 C 175.067 73.577 180.197 68.971 192.725 59.377 M 168.743 76.627 C 175.878 71.265 181.156 66.521 190.738 58.044 M 178.444 81.169 C 181.372 73.105 186.651 62.246 192.628 58.683 M 178.007 83.537 C 182.276 73.56 188.784 65.525 190.856 59.177 M 32.173 250.353 C 37.757 242.519 48.058 237.11 53.654 230.922 M 32.319 250.594 C 39.152 243.265 47.475 238.308 55.313 230.315 M 38.378 256.391 C 46.142 246.651 51.362 236.665 53.977 231.756 M 38.822 255.656 C 44.123 245.939 51.875 236.635 55.443 230.847 M 81.551 193.331 C 93.115 178.661 108.341 163.295 142.008 128.305 M 79.197 194.971 C 92.286 179.867 106.549 167.049 144.045 129.584 M 87.068 200.965 C 104.611 178.282 124.08 152.575 143.387 130.577 M 88.239 201.488 C 106.381 176.271 124.036 153.456 143.253 129.302 M 180.722 76.391 C 190.589 73.248 194.606 65.243 204.714 58.563 M 182.267 75.541 C 190.156 70.81 198.083 64.695 203.141 60.969 M 190.655 84.564 C 195.423 76.711 200.463 67.435 205.221 59.747 M 189.929 82.533 C 193.946 77.446 197.401 70.927 204.273 60.377 M 30.752 267.521 C 38.286 257.542 48.597 252.164 56.362 243.824 M 30.471 265.277 C 37.045 259.484 45.075 255.175 56.16 245.988 M 37.644 270.737 C 47.001 262.594 52.618 253.24 55.509 246.956 M 39.615 271.484 C 46.319 261.368 51.458 251.653 55.843 246.311 M 95.991 190.65 C 115.673 169.671 134.84 150.361 156.462 129.928 M 97.718 190.406 C 115.023 171.428 133.61 155.006 157.266 129.186 M 103.82 194.977 C 120.681 175.582 135.961 155.143 155.196 127.607 M 105.986 196.286 C 118.528 179.711 130.421 163.717 157.909 128.368 M 194 79.413 C 197.957 75.34 203.82 72.089 213.888 62.081 M 192.82 80.174 C 199.806 73.095 209.248 66.815 213.677 63.787 M 202.184 86.481 C 204.051 77.605 208.826 71.336 214.596 64.469 M 200.637 85.904 C 205.054 78.051 210.596 68.712 213.469 62.488 M 30.121 280.267 C 41.923 275.098 50.173 264.924 57.074 261.484 M 30.055 281.959 C 38.923 275.637 46.31 268.629 55.856 260.318 M 37.514 287.268 C 43.284 279.304 50.547 273.672 55.578 260.303 M 38.626 287.437 C 43.58 278.652 49.375 270.63 54.769 261.919 M 112.195 187.31 C 119.161 183.495 127.175 178.275 140.089 160.824 M 111.887 188.096 C 123.768 177.849 134.367 167.31 141.591 162.11 M 121.089 194.999 C 127.9 183.187 131.908 176.284 141.651 161.361 M 119.199 194.935 C 127.573 182.465 136.85 170.396 141.377 162.709 M 153.28 138.984 C 160.173 137.441 164.785 130.032 171.217 128.984 M 153.687 140.575 C 158.007 137.702 164.76 132.447 170.57 127.999 M 161.405 147.678 C 163.101 142.107 165.169 140.212 170.535 130.087 M 160.509 148.109 C 164.633 140.349 168.055 133.233 170.763 128.415 M 195.667 89.885 C 204.032 84.751 208.352 82.51 220.521 71.15 M 197.744 88.851 C 201.117 85.096 206.824 82.515 219.949 72.438 M 204.19 95.465 C 208.908 85.464 217.443 76.514 217.729 73.23 M 205.624 96.132 C 208.979 90.028 212.345 84.227 219.864 72.207 M 31.051 297.461 C 39.059 289.67 45.616 284.913 56.231 277.701 M 31.441 296.547 C 39.384 289.934 46.526 284.933 54.74 276.384 M 40.576 303.369 C 45.718 294.128 49.256 283.806 56.904 274.732 M 38.71 302.346 C 44.239 293.368 50.433 283.089 55.473 275.763 M 126.562 188.764 C 130.465 184.624 137.484 177.522 146.479 170.278 M 125.28 188.197 C 134.369 181.623 142.113 175.358 147.54 171.372 M 133.131 194.003 C 137.625 188.057 140.405 181.474 145.627 169.797 M 133.05 195.004 C 138.245 186.415 143.509 178.064 147.969 171.333 M 163.989 146.734 C 167.159 143.271 173.646 138.27 185.863 128.829 M 162.111 145.542 C 169.649 138.971 178.195 134.18 183.105 128.553 M 171.081 149.873 C 174.134 145.873 178.293 138.142 183.935 127.934 M 170.276 151.565 C 174.472 142.992 179.882 132.763 183.888 128.789 M 200.865 100.354 C 207.478 94.91 215.64 86.978 223.543 81.909 M 202.22 99.674 C 209.331 94.01 216.494 87.897 224.436 80.997 M 211.399 107.524 C 215.295 98.719 219.883 89.781 226.425 83.261 M 209.453 106.841 C 212.746 100.007 216.734 95.327 224.013 81.921 M 30.356 313.31 C 38.506 305.407 50.656 297.581 56.966 292.019 M 31.206 311.701 C 38.698 306.743 44.51 299.7 56.511 291.036 M 38.685 318.201 C 45.866 307.244 51.933 300.189 55.98 291.842 M 38.962 317.658 C 45.412 307.666 50.595 298.002 55.103 291.778 M 139.493 190.282 C 140.586 187.398 145.873 180.669 158.882 174.207 M 138.224 189.041 C 141.829 184.91 146.092 181.365 157.298 172.859 M 147.408 194.151 C 146.916 190.872 149.157 186.048 158.79 174.286 M 144.741 195.152 C 147.654 189.542 151.243 185.755 158.908 173.268 M 168.167 153.733 C 177.681 144.618 188.028 135.394 195.117 128.843 M 166.979 156.202 C 178.438 144.829 190.189 135.609 197.526 129.291 M 172.899 161.396 C 181.459 154.637 182.825 149.361 198.116 128.529 M 175.275 161.551 C 179.844 154.529 183.432 147.554 195.938 127.934 M 206.282 107.937 C 214.312 104.284 221.004 97.618 229.018 90.494 M 206.871 108.82 C 212.303 104.991 219.908 98.57 229.139 90.663 M 212.498 115.774 C 217.922 108.201 223.819 99.86 230.745 90.696 M 214.745 116.209 C 220.161 107.21 225.564 95.657 229.917 90.828 M 32.723 324.927 C 37.415 322.298 47.251 313.144 53.997 307.82 M 31.975 327.601 C 36.74 322.071 42.827 316.206 55.825 306.716 M 40.527 332.881 C 42.652 326.519 47.668 317.321 55.524 307.012 M 38.008 333.551 C 42.671 325.468 48.179 318.973 56.316 306.408 M 141.175 201.056 C 162.189 176.043 188.709 151.201 209.414 128.972 M 138.847 202.882 C 159.534 183.602 176.758 164.096 210.914 127.994 M 146.109 208.632 C 163.726 187.077 180.434 163.977 209.252 127.191 M 146.4 209.634 C 162.295 192.049 175.897 173.329 210.245 127.936 M 211.114 117.776 C 220.347 113.154 230.859 105.847 236.598 101.464 M 211.526 119.414 C 220.027 112.797 229.901 105.793 235.39 99.712 M 220.158 124.041 C 225.834 115.069 232.097 109.354 234.695 100.307 M 218.743 124.925 C 222.802 119.509 226.421 113.427 234.47 99.348 M 29.893 343.174 C 39.226 332.62 51.757 326.784 54.204 319.673 M 31.613 341.894 C 36.619 337.28 42.226 333.799 55.251 321.266 M 37.464 350.758 C 41.859 341.042 46.336 334.39 55.947 322.302 M 39.418 349.841 C 44.27 340.368 50.328 329.619 54.77 320.757 M 140.464 215.921 C 164.743 190.334 186.729 164.857 240.365 110.144 M 139.998 216.915 C 175.863 177.997 211.336 141.572 239.66 109.529 M 148.416 223.016 C 179.205 184.843 208.154 146.234 240.576 109.283 M 146.096 224.695 C 169.626 195.866 191.401 167.8 240.089 109.756 M 31.595 357.289 C 38.517 352.453 42.996 347.038 57.789 337.342 M 31.071 356.986 C 38.194 350.256 46.617 345.2 56.043 336.607 M 37.219 365.65 C 43.688 351.012 51.861 342.452 56.729 335.277 M 37.95 363.714 C 42.895 356.299 49.268 349.271 55.633 337.169 M 138.426 234.236 C 149.758 224.289 162.706 213.967 169.423 204.101 M 139.285 233.612 C 148.958 224.906 157.588 217.346 171.751 204.29 M 146.453 237.181 C 157.44 224.309 168.057 212.973 172.791 204.68 M 146.212 240.121 C 152.371 232.819 156.761 225.713 170.538 203.505 M 178.267 187.349 C 193.45 172.369 208.29 158.619 245.031 117.446 M 176.95 189.24 C 200.575 163.836 223.712 141.16 246.643 117.868 M 184.864 193.757 C 207.447 166.35 228.619 138.101 243.962 118.082 M 185.975 196.082 C 199.933 177.556 213.63 156.498 246.44 118.772 M 29.192 372.605 C 40.008 367.393 48.268 359.808 57.405 350.209 M 30.825 373.021 C 40.147 364.517 47.955 357.152 55.289 351.753 M 37.963 378.919 C 44.524 368.395 52.168 359.615 56.472 353.874 M 38.778 378.467 C 43.378 371.01 47.55 365.38 55.694 352.102 M 140.183 248.036 C 151.547 235.917 164.339 224.021 171.02 220.297 M 138.265 247.47 C 149.159 238.852 158.08 231.482 171.633 218.743 M 146.17 254.26 C 155.314 245.731 161.019 235.933 172.235 219.527 M 146.758 255.51 C 156.892 241.112 164.329 228.057 172.023 219.011 M 190.245 190.281 C 206.606 174.225 220.162 160.15 251.641 129.128 M 190.339 189.027 C 208.45 170.367 225.783 152.652 250.596 128.461 M 199.928 195.983 C 214.883 175.166 232.601 154.371 250.451 126.023 M 197.765 195.369 C 214.848 174.542 230.368 154.444 250.129 127.84 M 32.057 388.73 C 39.154 382.368 45.452 373.634 58.876 366.495 M 31.473 386.191 C 42.66 379.194 51.595 370.093 56.627 366.215 M 39.351 393.041 C 46.681 384.996 51.441 376.839 56.167 364.715 M 39.006 394.262 C 44.259 386.518 48.317 377.259 58.243 364.617 M 139.276 265.017 C 149.454 257.013 156.492 245.531 169.01 235.112 M 138.762 263.018 C 148.504 254.608 156.644 248.445 170.543 235.549 M 145.538 270.628 C 152.374 257.973 162.845 249.78 171.106 235.88 M 146.359 269.965 C 154.458 259.521 161.505 249.447 170.964 235.605 M 203.502 188.893 C 223.873 170.363 241.046 148.744 258.306 134.717 M 204.929 188.995 C 214.691 177.881 225.753 166.905 256.823 134.343 M 213.523 194.059 C 223.138 179.082 238.884 164.135 256.967 136.821 M 211.326 195.682 C 224.047 179.568 236.36 163.191 256.55 135.402 M 39.235 394.859 C 49.416 384.309 64.175 370.683 73.779 362.779 M 39.286 393.67 C 52.784 381.412 64.895 370.868 74.389 361.52 M 45.244 401.397 C 52.046 390.176 59.672 382.021 74.204 362.566 M 48 400.681 C 56.128 387.449 64.075 375.581 73.707 361.65 M 139.816 280.299 C 148.816 268.667 159.876 260.044 170.787 249.086 M 139.673 278.788 C 150.728 269.136 160.838 258.248 170.189 249.633 M 145.481 285.59 C 156.27 271.966 166.582 259.713 171.61 248.468 M 147.005 284.426 C 156.965 271.85 165.694 258.098 171.163 249.621 M 216.463 190.189 C 228.26 179.002 239.61 168.059 264.763 144.902 M 215.494 191 C 224.85 180.86 234.539 171.535 262.94 144.028 M 220.888 199.175 C 235.081 182.56 246.426 166.119 262.059 143.352 M 222.524 197.284 C 234.764 180.183 249.238 163.647 263.416 143.377 M 49.497 400.14 C 57.695 387.841 69.339 378.336 90.324 356.956 M 46.946 398.899 C 56.353 390.63 64.273 383.407 90.225 358.824 M 55.224 405.326 C 64.404 391.111 78.031 378.203 89.603 359.511 M 55.534 405.571 C 66.317 388.68 78.852 373.713 89.83 357.76 M 138.758 293.857 C 146.934 289.541 154.105 281.989 170.616 265.884 M 139.428 294.49 C 148.358 287.127 156.138 278.271 171.846 265.36 M 147.767 299.31 C 153.335 293.752 157.602 283.211 170.827 267.142 M 146.219 301.006 C 154.859 287.509 164.52 273.616 169.988 264.826 M 228.331 193.501 C 240.674 181.636 249.398 169.961 268.904 149.722 M 226.274 193.543 C 242.685 176.064 259.69 160.425 269.409 151.69 M 234.038 198.851 C 246.375 180.597 263.88 161.485 270.432 149.844 M 234.693 199.082 C 248.411 182.798 260.99 165.43 269.279 151.348 M 57.079 407.567 C 71.948 390.944 89.266 373.834 106.747 357.215 M 55.286 405.477 C 72.886 387.749 91.282 369.651 104.504 355.888 M 64.339 412.006 C 73.873 397.401 86.972 378.948 103.415 357.924 M 63.537 412.934 C 74.485 396.404 86.987 381.072 105.073 356.117 M 139.933 308.795 C 144.623 304.273 151.387 296.371 171.673 282.561 M 140.016 309.266 C 146.961 301.296 155.568 295.068 170.378 280.794 M 145.037 315.078 C 151.928 306.2 160.83 292.656 170.742 279.145 M 147.087 315.257 C 155.114 303.816 163.553 290.364 170.398 280.694 M 235.282 196.081 C 244.351 188.308 255.038 181.894 274.841 159.097 M 237.168 197.355 C 250.977 182.215 266.194 168.162 275.593 159.698 M 241.961 202.526 C 255.689 191.292 264.877 175.285 277.009 160.404 M 244.826 204.213 C 252.742 191.388 261.308 178.586 275.599 159.087 M 30.51 448.36 C 34.717 446.025 38.056 442.57 47.108 438.261 M 31.862 447.672 C 36.283 445.149 38.925 442.733 46.264 439.137 M 37.951 453.182 C 40.319 451.397 41.216 447.477 46.608 438.63 M 38.778 453.576 C 42.705 448.565 44.906 442.703 46.521 438.646 M 65.285 411.642 C 78.184 396.527 95.485 377.283 118.802 355.899 M 64.234 410.001 C 81.105 393.74 97.551 376.164 119.011 356.041 M 72.051 415.612 C 91.068 394.835 106.597 370.033 119.014 355.447 M 71.496 416.468 C 89.337 394.931 105.774 371.877 119.713 354.736 M 138.019 324.039 C 149.606 315.536 161.073 302.051 169.373 295.128 M 139.29 324.339 C 150.509 314.415 161.041 304.562 170.238 296.914 M 146.174 332.499 C 151.504 323.214 155.748 315.804 171.404 295.319 M 147.131 330.986 C 153.446 321.965 160.412 310.692 171.213 296.863 M 246.893 202.267 C 253.14 195.128 262.422 185.624 278.954 172.589 M 246.531 200.065 C 255.246 194.369 262.2 185.949 278.071 171.768 M 253.914 207.783 C 262.135 195.001 270.822 178.134 277.253 172.522 M 253.844 208.1 C 263.729 193.331 274.07 179.995 278.979 171.665 M 33.765 460.129 C 43.354 452.09 53.463 445.572 60.884 438.636 M 36.567 459.093 C 43.47 452.618 51.927 444.634 59.692 439.476 M 44.572 466.83 C 45.463 461.026 49.006 451.427 59.335 438.973 M 43.027 465.444 C 49.717 455.293 55.09 446.021 59.972 438.732 M 71.521 414.616 C 85.195 399.8 101.179 386.069 130.779 354.439 M 72.717 415.838 C 86.126 401.904 97.81 388.707 132.248 355.034 M 82.466 422.195 C 98.611 399.313 115.599 377.574 130.707 353.403 M 80.778 423.15 C 97.875 400.752 114.4 376.336 133.122 355.78 M 139.636 338.084 C 146.462 330.084 154.669 324.441 172.151 311.699 M 138.583 339.391 C 147.652 331.832 153.863 326.884 170.468 311.287 M 146.512 345.797 C 155.603 334.873 163.75 320.675 172.316 313.076 M 147.484 346.029 C 154.168 336.503 160.439 324.601 170.938 310.371 M 254.909 204.175 C 258.732 202.493 266.99 195.651 280.021 184.004 M 254.774 205.441 C 262.827 199.788 268.412 195.248 280.279 186.277 M 260.946 210.839 C 270.548 201.763 276.34 193.682 280.621 185.143 M 262.531 213.489 C 267.272 205.189 272.292 197.845 279.129 185.268 M 49.707 459.341 C 54.301 453.288 60.321 452.187 73.259 440.476 M 49.155 457.801 C 55.425 454.885 59.463 450.152 73.144 438.891 M 57.57 463.336 C 61.537 457.626 68.35 447.505 71.93 440.288 M 56.569 465.061 C 60.937 456.04 67.49 449.18 72.938 440.075 M 81.85 420.623 C 109.311 390.75 139.521 359.802 170.983 326.783 M 80.736 422.184 C 101.609 398.683 122.226 376.02 170.46 325.877 M 89.646 427.89 C 111.492 400.755 133.672 371.875 170.799 325.741 M 87.386 428.177 C 118.766 391.586 149.139 354.623 169.545 326.26 M 254.969 221.48 C 258.897 215.665 264.751 211.609 279.631 202.371 M 256.019 222.036 C 261.838 216.145 269.165 210.305 280.633 201.072 M 264.239 229.525 C 265.614 221.698 273.391 214.125 281.101 202.512 M 262.268 228.002 C 268.524 217.797 275.79 208.256 279.136 200.378 M 61.628 458.987 C 92.258 428.935 120.385 394.705 168.184 340.868 M 62.129 459.727 C 105.235 412.879 147.156 366.48 170.3 341.81 M 69.351 464.877 C 110.071 417.339 150.01 369.324 169.257 341.79 M 69.12 466.625 C 97.749 430.168 127.983 393.542 170.13 342.481 M 255.81 238.917 C 259.86 233.433 269.967 224.697 280.656 216.373 M 255.301 237.644 C 261.914 232.539 266.496 227.533 278.817 217.205 M 262.403 243.282 C 268.938 234.354 273.694 228.935 280.718 215.237 M 262.958 244.15 C 266.571 238.733 269.404 232.683 279.664 216.403 M 76.17 460.735 C 82.838 449.247 92.519 442.167 109.093 426.793 M 76.124 459.173 C 87.733 447.936 100.476 434.811 111.261 425.494 M 81.488 463.768 C 91.923 452.474 102.274 437.728 108.968 426.323 M 83.153 465.683 C 88.427 456.051 95.315 447.596 110.596 425.1 M 110.49 421.673 C 132.47 396.596 157.281 369.403 173.457 355.723 M 110.006 418.781 C 127.355 402.275 144.088 384.096 172.312 355.912 M 117.825 427.128 C 131.852 408.076 144.017 389.826 171.405 356.205 M 117.893 425.411 C 130.165 408.558 143.035 391.867 171.388 354.525 M 255.559 253.118 C 265.878 242.831 273.377 239.069 280.155 232.461 M 255.046 252.404 C 264.94 244.136 274.905 236.619 278.782 232.713 M 263.64 260.314 C 264.384 252.16 268.416 248.739 279.874 231.744 M 262.059 258.986 C 265.547 253.467 270.397 247.38 278.631 231.65 M 86.915 458.147 C 95.72 454.219 102.911 447.006 110.632 437.392 M 87.781 458.978 C 97.565 451.927 106.192 444.568 112.207 438.548 M 93.909 465.962 C 102.481 455.013 108.286 447.896 113.258 438.887 M 94.97 465.065 C 99.954 460.226 102.126 453.841 111.646 439.846 M 122.799 420.382 C 147.162 393.914 170.979 370.451 184.066 356.202 M 123.14 419.298 C 142.925 397.799 163.563 377.678 185.548 354.681 M 130.312 427.259 C 141.336 409.47 155.005 394.571 184.173 356.883 M 130.335 426.162 C 145.308 406.356 159.057 388.496 185.172 355.096 M 253.97 267.342 C 260.724 263.425 265.534 257.526 280.031 248.055 M 254.254 267.37 C 263.699 259.997 271.748 253.968 277.845 247.169 M 263.042 275.286 C 266.668 266.669 270.965 258.94 277.628 246.458 M 262.067 273.999 C 266.379 266.937 272.919 258.707 278.032 248.175 M 102.608 459.441 C 107.039 456.009 112.697 449.719 125.112 438.599 M 101.366 459.403 C 106.675 454.906 113.876 450.326 124.839 439.863 M 109.72 466.019 C 114.089 455.767 120.353 448.958 125.648 438.822 M 109.191 466.506 C 112.658 458.757 116.381 453.334 125.747 439.653 M 136.907 418.468 C 158.768 395.684 182.621 370.774 197.75 354.176 M 136.418 420.299 C 150.088 405.782 162.809 392.374 197.814 356.623 M 141.975 424.81 C 162.418 399.695 182.405 374.992 196.112 357.881 M 142.429 426.304 C 159.239 406.935 174.921 386.526 197.384 356.108 M 254.247 283.316 C 258.671 277.65 266.006 273.683 280.799 260.572 M 254.228 283.374 C 261.928 275.93 270.285 269.218 280.154 262.063 M 260.626 290.115 C 267.91 280.111 272.223 272.254 277.309 262.981 M 261.38 290.426 C 267.277 282.607 272.114 275.15 280.106 262.873 M 116.769 458.228 C 125.028 450.882 130.719 446.521 137.522 439.034 M 114.06 458.604 C 123.184 451.804 129.808 447.491 139.339 439.572 M 123.25 465.738 C 128.933 459.525 129.452 451.429 137.94 440.935 M 122.089 466.568 C 127.032 456.337 132.23 449.576 139.176 440.057 M 149.956 419.916 C 171.071 397.563 193.055 371.91 209.62 356.565 M 148.208 419.75 C 167.183 400.847 186.187 380.597 210.977 357.607 M 154.769 427.955 C 171.077 404.847 187.688 388.778 209.146 356.306 M 157.634 426.21 C 172.871 405.17 187.999 384.561 209.983 356.834 M 253.816 298.647 C 262.196 294.13 267.593 284.577 279.885 276.814 M 253.18 299.44 C 262.088 291.857 269.792 285.879 279.451 278.584 M 262.628 306.595 C 269.223 294.24 273.614 283.827 279.154 278.306 M 261.301 305.698 C 268.26 294.789 274.276 283.271 278.69 278.34 M 125.788 459.247 C 135.123 454.63 142.289 446.893 152.911 439.877 M 128.602 460.171 C 136.933 453.561 143.756 446.549 150.636 440.677 M 135.705 466.046 C 140.276 457.056 143.873 453.566 149.996 440.594 M 135.499 465.248 C 139.251 461.035 143.494 453.708 150.955 439.468 M 162.62 419.085 C 177.74 402.502 193.741 386.127 220.351 358.923 M 163.094 420.3 C 182.642 400.478 200.626 380.375 221.152 358.447 M 170.182 427.24 C 186.746 402.082 204.483 380.092 222.763 357.9 M 169.629 426.936 C 184.317 409.421 197.325 391.181 221.179 359.497 M 253.63 313.313 C 262.869 308.182 271.296 302.638 279.556 292.448 M 253.538 313.276 C 262.121 307.51 271.036 299.758 279.007 293.095 M 262.817 320.891 C 266.615 316.209 268.291 309.826 280.242 294.285 M 261.353 319.929 C 267.867 310.972 274.753 300.884 279.15 294.346 M 142.903 460.095 C 150.492 453.964 157.682 444.255 165.829 438.414 M 141.266 458.871 C 146.616 456.398 151.967 452.192 163.846 440.599 M 149.133 464.726 C 155.48 456.588 157.548 447.94 163.176 441.271 M 148.786 465.718 C 154.958 457.603 158.257 449.294 164.294 440.713 M 173.791 418.211 C 188.115 407.115 202.26 392.519 232.116 360.911 M 174.568 420.791 C 194.747 401.525 213.379 381.882 232.644 360.377 M 183.918 425.088 C 195.01 408.014 210.933 388.152 233.947 360.512 M 182.999 425.729 C 197.825 408.684 210.542 388.767 233.37 360.735 M 255.551 328.681 C 263.045 323.122 269.431 316.269 276.953 310.264 M 253.323 330.29 C 261.987 322.987 269.137 315.59 279.657 309.398 M 259.866 334.558 C 264.697 329.14 271.388 321.235 280.53 307.895 M 260.652 336.933 C 266.325 328.137 271.279 320.966 278.413 308.098 M 153.6 460.513 C 160.845 453.322 165.453 450.177 179.729 441.319 M 153.262 459.923 C 163.322 453.401 170.063 445.191 177.678 440.46 M 161.833 465.709 C 165.534 458.065 168.321 452.974 179.749 439.829 M 162.255 465.605 C 164.481 460.487 168.998 454.431 177.997 440.321 M 187.206 420.393 C 209.884 400.458 226.045 379.467 243.994 363.578 M 189.651 419.238 C 206.925 402.204 224.081 385.703 245.35 364.333 M 196.525 424.786 C 215.656 399.514 235.036 376.391 244.593 363.379 M 195.859 427.011 C 207.332 413.777 216.72 399.877 244.547 362.891 M 254.285 346.978 C 258.923 339.525 265.841 333.468 278.127 322.44 M 254.091 345.064 C 260.294 340.831 266.045 335.139 277.832 324.995 M 261.293 350.011 C 265.928 343.671 271.992 335.145 276.878 325.504 M 261.845 351.699 C 269.237 341.905 275.98 330.872 279.003 324.505 M 168.864 460.351 C 175.843 452.332 183.267 445.442 188.943 438.391 M 167.986 458.969 C 174.628 453.229 183.166 447.503 190.407 440.821 M 173.604 465.029 C 179.328 460.866 184.152 452.83 192.856 440.255 M 174.397 466.956 C 181.766 455.758 187.044 446.253 190.429 440.259 M 202.852 418.873 C 214.45 409.323 224.941 396.51 255.911 364.835 M 202.303 420.113 C 214.446 406.644 228.548 391.817 256.698 366.423 M 208.803 427.764 C 222.679 407.733 236.431 390.585 257.435 366.597 M 209.265 427.66 C 219.61 412.62 232.057 396.506 256.231 365.48 M 254.754 362.312 C 261.707 352.773 268.064 348.831 277.97 338.018 M 254.3 360.374 C 262.403 353.664 271.898 346.017 277.489 340.562 M 260.833 365.545 C 265.637 358.184 271.289 351.485 278.991 338.34 M 260.486 367.408 C 266.186 361.082 270.63 354.024 278.973 339.649 M 180.59 460.844 C 188.967 454.359 192.994 449.783 204.644 440.291 M 180.43 459.35 C 186.32 454.884 192.718 449.346 203.834 439.417 M 189.152 464.112 C 192.638 454.97 201.774 448.692 204.485 439.396 M 189.297 465.517 C 194.172 456.405 200.416 447.968 203.489 439.666 M 201.093 434.092 C 218.93 419.34 234.796 400.542 279.848 355.151 M 201.552 435.4 C 222.012 415.442 240.567 395.347 278.864 355.628 M 209.929 442.649 C 223.21 424.433 239.074 405.011 279.27 354.826 M 209.336 442.065 C 231.849 414.127 252.886 386.829 278.694 354.888 M 193.388 459.457 C 200.894 451.859 208.622 445.895 227.406 426.892 M 194.602 459.972 C 202.243 452.665 212.388 443.739 227.31 427.942 M 199.728 466.121 C 209.271 452.99 218.272 440.375 228.607 426.484 M 200.321 466.219 C 212.263 451.5 222.024 437.235 227.097 428.78 M 234.251 413.828 C 242.716 404.964 251.788 393.276 279.269 369.636 M 231.856 415.317 C 248.786 398.529 265.616 382.703 277.715 370.248 M 238.763 422.979 C 251.789 408.644 261.615 390.44 277.885 370.057 M 239.309 421.948 C 248.137 411.653 254.906 400.279 279.025 369.952 M 206.365 459.273 C 214.299 451.476 222.75 447.176 230.49 441.398 M 207.182 460.174 C 215.304 452.75 222.985 447.86 231.412 439.642 M 213.153 466.854 C 219.409 458.964 223.312 451.12 231.594 441.122 M 214.95 465.71 C 218.995 458.535 224.738 449.423 231.591 440.216 M 261.349 395.669 C 267.901 391.658 273.419 387.369 277.375 385.15 M 262.876 396.323 C 266.877 392.071 271.091 389.683 278.527 385.446 M 269.833 401.303 C 274.027 395.183 277.331 391.611 279.238 384.32 M 270.333 401.218 C 272.048 398.686 273.85 394.849 278.682 385.596 M 218.132 458.632 C 229.302 451.693 237.214 448.157 243.497 442.422 M 219.021 460.929 C 226.852 454.533 234.482 446.805 242.733 441.011 M 227.534 465.148 C 233.357 461.083 238.293 451.248 242.547 442.423 M 228.285 466.713 C 230.125 461.923 234.2 456.543 243.814 440.218 M 232.665 461.794 C 238.134 455.536 244.424 449.635 255.733 438.717 M 233.224 459.982 C 240.167 455.693 246.826 450.107 257.805 440.742 M 241.281 467.941 C 248.35 456.126 252.05 448.059 257.115 438.816 M 241.233 466.546 C 245.266 459.988 248.604 453.436 256.48 441.147 M 245.374 458.619 C 254.427 454.045 260.685 450.516 272.116 439.626 M 246.046 458.954 C 252.96 455.799 258.84 450.871 270.954 440.596 M 255.058 466.59 C 261.523 458.988 264.801 449.59 270.654 440.547 M 254.505 465.695 C 258.558 458.84 262.782 453.189 269.696 441.08 M 261.53 459.529 C 266.407 456.204 274.502 448.459 277.607 447.669 M 260.382 459.502 C 264.206 456.599 268.637 453.223 277.86 446.736 M 265.575 467.079 C 269.619 460.18 271.763 456.148 277.562 447.699 M 267.777 467.533 C 271.384 459.082 274.762 454.217 276.92 446.899 M 273.157 460.48 C 274.58 460.708 276.266 462.29 277.663 462.402 M 273.261 459.88 C 273.934 460.648 274.987 460.946 277.337 462.726 M 280.599 466.501 C 279.574 465.592 279.162 464.742 277.426 462.144 M 280.822 466.338 C 279.712 465.591 278.829 463.976 277.697 462.766 " style="fill: none; stroke-width: 4px; stroke: rgb(69, 132, 182);"/>
  </g>
  <g id="g-2" class="s0" transform="matrix(0.7985129952430724, 0, 0, 0.7985129952430724, 90.6124662550161, 19.353618910217563)" style="">
    <path d="M 210.4 303.976 C 220.118 299.444 228.156 289.072 230.424 287.116 M 209.797 305.28 C 215.866 299.838 221.911 294.803 232.549 286.91 M 216.849 312.501 C 220.231 303.15 226.947 298.311 233.051 288.386 M 216.868 312.937 C 220.447 306.791 223.38 299.99 232.323 286.145 M 211.214 321.269 C 217.862 314.271 226.596 303.618 241.232 293.993 M 209.913 320.177 C 217.441 314.694 223.531 306.945 238.892 295.001 M 216.195 326.811 C 227.411 312.384 235.67 300.373 240.04 294.716 M 217.562 327.304 C 224.634 317.317 232.529 306.243 239.58 294.391 M 214.056 333.687 C 222.164 326.023 229.825 318.551 238.95 310.714 M 212.361 331.485 C 223.669 323.329 232.857 313.932 238.342 309.569 M 218.985 339.877 C 228.472 327.5 233.988 317.579 238.325 311.051 M 220.012 339.26 C 225.364 329.451 231.882 320.079 239.132 308.775 M 223.918 337.489 C 227.783 333.281 232.722 332.078 238.78 325.575 M 223.085 336.404 C 227.866 333.538 233.165 329.578 238.144 326.229 M 229.683 343.527 C 233.104 334.299 238.229 328.352 240.515 327.22 M 228.973 343.71 C 231.95 336.12 235.894 330.613 238.01 325.643 " style="fill: none; stroke-width: 4px; stroke: rgb(255, 222, 87);"/>
    <path d="M 135.217 165.743 C 146.174 162.543 155.236 155.218 157.793 153.837 M 134.537 166.664 C 141.38 162.821 148.195 159.265 160.189 153.691 M 142.488 171.763 C 146.301 165.16 153.873 161.743 160.755 154.734 M 142.509 172.071 C 146.544 167.731 149.851 162.928 159.934 153.151 M 136.135 177.955 C 143.63 173.013 153.477 165.49 169.978 158.693 M 134.668 177.184 C 143.155 173.312 150.021 167.84 167.34 159.405 M 141.751 181.869 C 154.396 171.681 163.707 163.199 168.634 159.204 M 143.292 182.217 C 151.265 175.164 160.166 167.344 168.115 158.974 M 139.339 186.725 C 148.48 181.313 157.117 176.036 167.405 170.501 M 137.428 185.17 C 150.177 179.41 160.536 172.774 166.72 169.693 M 144.896 191.096 C 155.592 182.356 161.811 175.349 166.701 170.739 M 146.054 190.66 C 152.088 183.733 159.437 177.115 167.61 169.132 M 150.458 189.41 C 154.815 186.438 160.384 185.589 167.214 180.996 M 149.519 188.644 C 154.909 186.62 160.883 183.823 166.497 181.458 M 156.957 193.674 C 160.814 187.157 166.592 182.957 169.17 182.158 M 156.157 193.803 C 159.513 188.443 163.96 184.554 166.345 181.044" style="fill: none; stroke-width: 4px; stroke: rgb(255, 222, 87);"/>
  </g>
  <g style="" transform="matrix(0.7985129952430724, 0, 0, 0.7985129952430724, 90.23707715030127, 24.482883818192477)">
    <path d="M 220.418 312.182 C 220.418 312.182 220.418 312.182 220.418 312.182 M 220.418 312.182 C 220.418 312.182 220.418 312.182 220.418 312.182 M 224.029 324.934 C 222.784 323.313 229.932 320.656 230.572 311.996 M 220.895 323.543 C 226.777 319.251 228.409 317.157 235.208 314.462 M 220.665 325.37 C 220.665 325.37 220.665 325.37 220.665 325.37 M 220.665 325.37 C 220.665 325.37 220.665 325.37 220.665 325.37 M 231.493 321.559 C 230.919 315.824 221.862 319.561 216.231 309.33 M 233.467 321.354 C 227.844 318.156 223.818 314.734 219.334 309.59 " style="fill: none; stroke: rgb(216, 216, 216); stroke-width: 4px;"/>
    <path d="M 235.599 317.518 C 236.92 323.249 234.671 323.167 232.696 325.563 M 235.241 318.696 C 234.074 320.094 233.555 322.259 233.241 324.476 M 232.678 326.386 C 233.31 325.877 230.149 326.246 226.566 329.246 M 232.774 324.405 C 231.901 326.682 229.587 326.458 227.233 328.18 M 226.032 327.293 C 223.637 325.106 221.865 327.35 220.754 323.975 M 226.264 328.525 C 226.538 327.45 224.211 327.101 220.452 324.121 M 219.042 324.551 C 219.112 324.641 218.985 321.858 217.402 317.088 M 219.323 326.069 C 220.002 321.796 217.829 320.432 217.864 319.41 M 217.068 317.321 C 217.063 315.189 216.642 315.307 219.135 312.274 M 217.27 317.922 C 219.028 316.474 220.921 314.518 219.921 311.849 M 222.294 313.125 C 220.915 313.302 224.997 312.788 227.298 311.346 M 220.644 312.634 C 222.28 310.509 225.631 309.799 226.766 310.283 M 227.788 308.733 C 230.642 312.829 231.374 311.135 231.574 313.926 M 227.329 309.167 C 228.804 311.277 230.416 312.049 232.787 312.116 M 232.195 310.739 C 232.6 315.324 234.181 316.897 236.419 320.516 M 233.369 312.016 C 234.23 313.188 234.817 315.627 236.037 318.688 " style="fill: none; stroke: rgb(0, 0, 0); stroke-width: 5px;"/>
  </g>
  <g id="g-3" class="s0" transform="matrix(0.7985129952430724, 0, 0, 0.7985129952430724, -22.60862574888199, 25.06501425899586)" style="">
    <path d="M 210.4 303.976 C 220.118 299.444 228.156 289.072 230.424 287.116 M 209.797 305.28 C 215.866 299.838 221.911 294.803 232.549 286.91 M 216.849 312.501 C 220.231 303.15 226.947 298.311 233.051 288.386 M 216.868 312.937 C 220.447 306.791 223.38 299.99 232.323 286.145 M 211.214 321.269 C 217.862 314.271 226.596 303.618 241.232 293.993 M 209.913 320.177 C 217.441 314.694 223.531 306.945 238.892 295.001 M 216.195 326.811 C 227.411 312.384 235.67 300.373 240.04 294.716 M 217.562 327.304 C 224.634 317.317 232.529 306.243 239.58 294.391 M 214.056 333.687 C 222.164 326.023 229.825 318.551 238.95 310.714 M 212.361 331.485 C 223.669 323.329 232.857 313.932 238.342 309.569 M 218.985 339.877 C 228.472 327.5 233.988 317.579 238.325 311.051 M 220.012 339.26 C 225.364 329.451 231.882 320.079 239.132 308.775 M 223.918 337.489 C 227.783 333.281 232.722 332.078 238.78 325.575 M 223.085 336.404 C 227.866 333.538 233.165 329.578 238.144 326.229 M 229.683 343.527 C 233.104 334.299 238.229 328.352 240.515 327.22 M 228.973 343.71 C 231.95 336.12 235.894 330.613 238.01 325.643 " style="fill: none; stroke: rgb(0, 0, 0); stroke-width: 4px;"/>
  </g>
  <g id="g-4" class="s0" transform="matrix(0.7985129952430724, 0, 0, 0.7985129952430724, -22.233320567508372, 19.93536788128864)" style="">
    <path d="M 210.4 303.976 C 220.118 299.444 228.156 289.072 230.424 287.116 M 209.797 305.28 C 215.866 299.838 221.911 294.803 232.549 286.91 M 216.849 312.501 C 220.231 303.15 226.947 298.311 233.051 288.386 M 216.868 312.937 C 220.447 306.791 223.38 299.99 232.323 286.145 M 211.214 321.269 C 217.862 314.271 226.596 303.618 241.232 293.993 M 209.913 320.177 C 217.441 314.694 223.531 306.945 238.892 295.001 M 216.195 326.811 C 227.411 312.384 235.67 300.373 240.04 294.716 M 217.562 327.304 C 224.634 317.317 232.529 306.243 239.58 294.391 M 214.056 333.687 C 222.164 326.023 229.825 318.551 238.95 310.714 M 212.361 331.485 C 223.669 323.329 232.857 313.932 238.342 309.569 M 218.985 339.877 C 228.472 327.5 233.988 317.579 238.325 311.051 M 220.012 339.26 C 225.364 329.451 231.882 320.079 239.132 308.775 M 223.918 337.489 C 227.783 333.281 232.722 332.078 238.78 325.575 M 223.085 336.404 C 227.866 333.538 233.165 329.578 238.144 326.229 M 229.683 343.527 C 233.104 334.299 238.229 328.352 240.515 327.22 M 228.973 343.71 C 231.95 336.12 235.894 330.613 238.01 325.643 " style="fill: none; stroke-width: 4px; stroke: rgb(255, 222, 87);"/>
  </g>
  <g style="" transform="matrix(0.7985129952430724, 0, 0, 0.7985129952430724, 90.23707715030127, 24.482883818192477)">
    <path d="M 79.272 312.712 C 79.272 312.712 79.272 312.712 79.272 312.712 M 79.272 312.712 C 79.272 312.712 79.272 312.712 79.272 312.712 M 82.343 326.183 C 81.025 324.466 88.593 321.653 89.271 312.484 M 79.024 324.711 C 85.253 320.166 86.981 317.948 94.179 315.095 M 78.724 325.559 C 78.724 325.559 78.724 325.559 78.724 325.559 M 78.724 325.559 C 78.724 325.559 78.724 325.559 78.724 325.559 M 90.307 322.404 C 89.733 316.669 80.676 320.406 75.045 310.175 M 92.282 322.199 C 86.658 319.001 82.632 315.579 78.148 310.434 " style="fill: none; stroke: rgb(216, 216, 216); stroke-width: 4px;"/>
    <path d="M 94.28 318.247 C 95.601 323.978 93.352 323.896 91.377 326.292 M 93.922 319.425 C 92.755 320.823 92.236 322.988 91.922 325.205 M 91.359 327.115 C 91.991 326.606 88.83 326.975 85.247 329.975 M 91.455 325.134 C 90.582 327.411 88.268 327.187 85.914 328.909 M 84.713 328.022 C 82.318 325.835 80.546 328.079 79.435 324.704 M 84.945 329.254 C 85.219 328.179 82.892 327.83 79.133 324.85 M 77.723 325.28 C 77.793 325.37 77.666 322.587 76.083 317.817 M 78.005 326.798 C 78.683 322.525 76.51 321.161 76.545 320.139 M 75.749 318.05 C 75.744 315.918 75.323 316.036 77.816 313.004 M 75.951 318.651 C 77.709 317.203 79.602 315.247 78.602 312.578 M 80.975 313.854 C 79.596 314.031 83.678 313.517 85.979 312.075 M 79.325 313.363 C 80.961 311.238 84.312 310.528 85.447 311.012 M 86.469 309.462 C 89.323 313.558 90.055 311.864 90.255 314.655 M 86.01 309.896 C 87.485 312.006 89.097 312.778 91.468 312.845 M 90.876 311.468 C 91.281 316.053 92.862 317.626 95.1 321.245 M 92.05 312.745 C 92.911 313.917 93.498 316.356 94.718 319.417 " style="fill: none; stroke: rgb(0, 0, 0); stroke-width: 5px;"/>
  </g>
  <path d="M 375.218 304.186 L 346.232 304.186 L 346.232 202.136 L 375.218 202.136 L 375.218 304.186 Z M 390.943 304.186 L 393.898 202.136 L 433.344 202.136 L 447.957 258.99 L 448.995 258.99 L 463.608 202.136 L 502.974 202.136 L 505.929 304.186 L 477.981 304.186 L 477.502 273.922 L 476.943 234.795 L 475.745 234.795 L 460.893 292.128 L 435.979 292.128 L 421.047 234.795 L 419.769 234.795 L 419.29 274.002 L 418.891 304.186 L 390.943 304.186 Z M 513.992 304.186 L 540.822 248.05 L 540.822 254.039 L 515.109 202.136 L 545.613 202.136 L 561.104 236.392 L 562.541 236.392 L 578.112 202.136 L 608.615 202.136 L 582.823 254.039 L 582.823 248.05 L 609.733 304.186 L 578.591 304.186 L 562.541 267.454 L 561.104 267.454 L 545.134 304.186 L 513.992 304.186 Z" style="fill: rgb(69, 132, 182);" transform="matrix(0.9999999999999999, 0, 0, 0.9999999999999999, 0, 0)"/>
  <g transform="matrix(0.7985129952430724, 0, 0, 0.7985129952430724, 31.809893128423255, -97.0769896667747)" style="">
    <path d="M 220.418 312.182 C 220.418 312.182 220.418 312.182 220.418 312.182 M 220.418 312.182 C 220.418 312.182 220.418 312.182 220.418 312.182 M 224.029 324.934 C 222.784 323.313 229.932 320.656 230.572 311.996 M 220.895 323.543 C 226.777 319.251 228.409 317.157 235.208 314.462 M 220.665 325.37 C 220.665 325.37 220.665 325.37 220.665 325.37 M 220.665 325.37 C 220.665 325.37 220.665 325.37 220.665 325.37 M 231.493 321.559 C 230.919 315.824 221.862 319.561 216.231 309.33 M 233.467 321.354 C 227.844 318.156 223.818 314.734 219.334 309.59 " style="fill: none; stroke: rgb(216, 216, 216); stroke-width: 4px;"/>
    <path d="M 235.599 317.518 C 236.92 323.249 234.671 323.167 232.696 325.563 M 235.241 318.696 C 234.074 320.094 233.555 322.259 233.241 324.476 M 232.678 326.386 C 233.31 325.877 230.149 326.246 226.566 329.246 M 232.774 324.405 C 231.901 326.682 229.587 326.458 227.233 328.18 M 226.032 327.293 C 223.637 325.106 221.865 327.35 220.754 323.975 M 226.264 328.525 C 226.538 327.45 224.211 327.101 220.452 324.121 M 219.042 324.551 C 219.112 324.641 218.985 321.858 217.402 317.088 M 219.323 326.069 C 220.002 321.796 217.829 320.432 217.864 319.41 M 217.068 317.321 C 217.063 315.189 216.642 315.307 219.135 312.274 M 217.27 317.922 C 219.028 316.474 220.921 314.518 219.921 311.849 M 222.294 313.125 C 220.915 313.302 224.997 312.788 227.298 311.346 M 220.644 312.634 C 222.28 310.509 225.631 309.799 226.766 310.283 M 227.788 308.733 C 230.642 312.829 231.374 311.135 231.574 313.926 M 227.329 309.167 C 228.804 311.277 230.416 312.049 232.787 312.116 M 232.195 310.739 C 232.6 315.324 234.181 316.897 236.419 320.516 M 233.369 312.016 C 234.23 313.188 234.817 315.627 236.037 318.688 " style="fill: none; stroke: rgb(0, 0, 0); stroke-width: 5px;"/>
  </g>
  <text style="fill: rgb(51, 51, 51); font-family: 'Architects Daughter'; font-size: 115px; font-weight: 900; text-transform: uppercase; white-space: pre;" transform="matrix(0.7985129952430724, 0, 0, 0.7985129952430724, 71.86722671787766, 114.4755876433191)"><tspan x="318.121" y="236.731" dy="1em"></tspan><tspan>insights</tspan></text>
  <text style="fill: rgb(255, 222, 87); font-family: 'Architects Daughter'; font-size: 115px; font-weight: 900; text-transform: uppercase; white-space: pre;" transform="matrix(0.7985129952430724, 0, 0, 0.7985129952430724, 76.73079795734282, 107.45059364215422)"><tspan x="318.121" y="236.731" dy="1em"></tspan><tspan>insights</tspan></text>
</svg>