<?xml version="1.0" encoding="utf-8"?>
<svg viewBox="-1008.3 -224.305 3213.7031 784.086" width="3213.7031" height="784.086" xmlns="http://www.w3.org/2000/svg">
  <path style="fill: rgb(255, 222, 87); stroke-width: 6px; stroke: rgb(255, 222, 87);" d="M -896.375 31.529 C -855.127 29.328 -781.166 30.765 -767.218 30.956 C -753.27 31.147 -751.589 32.602 -746.011 36.879 C -742.576 39.512 -740.133 44.015 -740.087 48.343 C -738.991 150.869 -739.132 342.96 -739.132 342.96 C -739.132 342.96 -918.156 342.769 -917.774 342.577 C -917.392 342.385 -919.969 147.52 -919.302 52.357 C -919.262 46.722 -915.762 40.746 -911.66 37.073 C -908.014 33.808 -901.381 31.796 -896.375 31.529 Z" transform="matrix(1, 0, 0, 1, 9.094947017729282e-13, 0)"/>
  <path d="M -821.7 -222.519 C -830.4 -219.119 -909.1 -21.119 -909.8 -20.019 C -910.4 -18.919 -913.762 -10.933 -913.762 -10.933 C -913.762 -10.933 -911.269 -11.91 -906.491 -16.119 C -897.948 -23.644 -878.8 -34.719 -864.8 -38.519 C -853.9 -41.519 -847.3 -42.319 -809.8 -44.919 C -768.7 -47.919 -750 -49.519 -749.4 -50.119 C -749.1 -50.319 -748.8 -52.819 -748.6 -55.519 C -748.2 -61.819 -745.6 -67.119 -740.4 -71.819 C -733.7 -77.919 -731 -78.819 -718.6 -79.319 C -705.8 -79.819 -700.7 -78.619 -694.2 -73.419 C -688.7 -69.119 -685.6 -63.219 -684.8 -55.919 L -684.1 -49.819 C -684.1 -49.819 -636.481 -46.549 -624.081 -45.749 C -594.381 -43.649 -584.964 -40.877 -573.337 -38.06 C -558.844 -34.548 -538.7 -25.719 -525.4 -14.919 L -522 -12.119 L -523.778 -17.28 C -524.378 -20.28 -592.2 -193.319 -593.3 -196.019 C -594.4 -198.819 -600.7 -213.519 -604 -216.619 C -612.3 -224.619 -602.6 -224.019 -715.8 -224.219 C -813.3 -224.419 -817 -224.419 -821.7 -222.519 Z M -617.8 -204.019 C -617.8 -204.019 -594.3 -94.619 -594.3 -94.219 C -594.3 -93.819 -839.2 -94.019 -839.2 -94.019 C -839.2 -94.019 -816.2 -200.819 -815.7 -202.819 C -815.2 -204.419 -809.8 -204.519 -716.5 -204.319 L -617.8 -204.019 Z" style="fill: rgb(100, 100, 100); stroke-linecap: round; stroke-width: 6px; stroke: rgba(0, 0, 0, 0.247);" fill="#000000" transform="matrix(1, 0, 0, 1, 9.094947017729282e-13, 0)"/>
  <path style="fill: rgb(255, 222, 87); stroke-width: 6px; stroke: rgb(255, 222, 87);" d="M -697.095 340.825 C -697.095 340.825 -697.095 51.314 -697.095 50.415 C -697.095 49.516 -692.951 37.808 -688.106 33.774 C -683.627 30.044 -671.92 28.387 -671.47 28.387 C -671.021 28.387 -590.801 26.075 -541.017 28.267 C -536.735 28.456 -526.177 33.078 -523.568 36.479 C -520.825 40.056 -518.623 49.066 -518.623 49.066 L -515.476 342.623 C -515.476 342.623 -683.842 340.679 -697.095 340.825 Z" fill="#000000" transform="matrix(1, 0, 0, 1, 9.094947017729282e-13, 0)"/>
  <path style="fill: rgb(255, 222, 87); stroke-width: 6px; stroke: rgb(255, 222, 87);" d="M -914.056 -10.148 C -914.056 -10.148 -922.777 4.184 -922.427 3.483 C -922.077 2.782 -911.515 -3.433 -905.093 -4.568 C -841.022 -15.891 -715.891 -21.855 -715.891 -21.855 C -715.891 -21.855 -587.785 -14.846 -525.796 -4.642 C -520.079 -3.701 -513.608 3.553 -513.608 3.553 L -521.893 -12.022 C -521.893 -12.022 -532.489 -20.726 -539.333 -24.307 C -550.448 -30.123 -560.991 -34.992 -573.11 -38.231 C -587.908 -42.186 -603.859 -44.268 -619.079 -45.993 C -639.657 -48.325 -684.134 -50.226 -684.134 -50.226 C -684.134 -50.226 -684.331 -56.643 -685.876 -60.432 C -687.463 -64.323 -688.525 -69.125 -691.628 -71.838 C -695.073 -74.85 -699.443 -77.15 -703.88 -78.269 C -710.279 -79.883 -718.61 -79.634 -725.113 -78.511 C -728.622 -77.905 -731.017 -79.546 -736.906 -74.57 C -739.151 -72.673 -744.193 -69.129 -743.843 -69.129 C -743.69 -69.129 -746.768 -66.674 -748.451 -62.297 C -750.628 -56.636 -752.529 -49.331 -751.838 -49.331 C -750.612 -49.331 -772.896 -47.541 -772.896 -47.541 C -772.896 -47.541 -797.675 -46.544 -811.361 -45.329 C -824.754 -44.14 -848.324 -42.662 -857.184 -40.96 C -868.428 -38.8 -878.092 -34.192 -888.332 -29.722 C -897.475 -25.731 -914.056 -10.148 -914.056 -10.148 Z" transform="matrix(1, 0, 0, 1, 9.094947017729282e-13, 0)"/>
  <path d="M -852.8 262.381 C -858 263.781 -861.9 266.281 -866.1 270.981 C -880.7 287.481 -867.6 314.981 -845.3 314.781 C -831.4 314.681 -820.5 304.281 -819.5 290.281 C -818.7 279.581 -824.5 268.981 -833.7 264.281 C -838.1 262.081 -847.9 261.081 -852.8 262.381 Z" style="fill: rgb(69, 132, 182);" fill="#000000" stroke="none" transform="matrix(1, 0, 0, 1, 9.094947017729282e-13, 0)"/>
  <path d="M -599.8 263.081 C -609 266.481 -616.7 277.781 -616.7 287.981 C -616.7 308.081 -594.4 321.581 -577.3 311.881 C -566.7 305.881 -561.2 294.881 -563.3 283.781 C -565.1 273.981 -572 265.781 -581.2 262.681 C -585.8 261.081 -594.9 261.281 -599.8 263.081 Z" style="fill: rgb(69, 132, 182);" fill="#000000" stroke="none" transform="matrix(1, 0, 0, 1, 9.094947017729282e-13, 0)"/>
  <path d="M -404.431 327.612 C -408.782 327.612 -412.375 326.202 -415.208 323.381 C -418.041 320.56 -419.458 316.971 -419.458 312.612 L -419.458 -47.888 C -419.458 -52.247 -418.05 -55.836 -415.235 -58.657 C -412.42 -61.478 -408.836 -62.888 -404.485 -62.888 C -400.134 -62.888 -396.541 -61.478 -393.708 -58.657 C -390.875 -55.836 -389.458 -52.247 -389.458 -47.888 L -389.458 312.612 C -389.458 316.971 -390.866 320.56 -393.681 323.381 C -396.496 326.202 -400.08 327.612 -404.431 327.612 Z M 62.031 327.612 C 57.698 327.612 54.114 326.195 51.281 323.362 C 48.448 320.529 47.031 316.945 47.031 312.612 L 47.031 168.112 C 47.031 142.445 40.281 121.445 26.781 105.112 C 13.281 88.779 -4.302 80.612 -25.969 80.612 C -48.969 80.612 -67.719 88.195 -82.219 103.362 C -96.719 118.529 -103.636 138.945 -102.969 164.612 L -132.969 164.612 C -132.302 141.612 -127.302 121.612 -117.969 104.612 C -108.636 87.612 -95.969 74.362 -79.969 64.862 C -63.969 55.362 -45.969 50.612 -25.969 50.612 C -5.636 50.612 12.198 55.612 27.531 65.612 C 42.864 75.612 54.948 89.445 63.781 107.112 C 72.614 124.779 77.031 145.112 77.031 168.112 L 77.031 312.612 C 77.031 316.945 75.698 320.529 73.031 323.362 C 70.364 326.195 66.698 327.612 62.031 327.612 Z M -299.469 327.612 C -303.802 327.612 -307.386 326.195 -310.219 323.362 C -313.052 320.529 -314.469 316.945 -314.469 312.612 L -314.469 69.112 C -314.469 64.445 -313.052 60.779 -310.219 58.112 C -307.386 55.445 -303.802 54.112 -299.469 54.112 C -294.802 54.112 -291.136 55.445 -288.469 58.112 C -285.802 60.779 -284.469 64.445 -284.469 69.112 L -284.469 312.612 C -284.469 316.945 -285.802 320.529 -288.469 323.362 C -291.136 326.195 -294.802 327.612 -299.469 327.612 Z M -117.969 327.612 C -122.302 327.612 -125.886 326.195 -128.719 323.362 C -131.552 320.529 -132.969 316.945 -132.969 312.612 L -132.969 168.112 C -132.969 142.445 -139.719 121.445 -153.219 105.112 C -166.719 88.779 -184.302 80.612 -205.969 80.612 C -228.969 80.612 -247.802 87.945 -262.469 102.612 C -277.136 117.279 -284.469 136.279 -284.469 159.612 L -309.469 159.612 C -308.469 138.279 -303.386 119.445 -294.219 103.112 C -285.052 86.779 -272.802 73.945 -257.469 64.612 C -242.136 55.279 -224.969 50.612 -205.969 50.612 C -185.636 50.612 -167.802 55.612 -152.469 65.612 C -137.136 75.612 -125.052 89.445 -116.219 107.112 C -107.386 124.779 -102.969 145.112 -102.969 168.112 L -102.969 312.612 C -102.969 316.945 -104.302 320.529 -106.969 323.362 C -109.636 326.195 -113.302 327.612 -117.969 327.612 Z M 331.997 327.612 C 327.997 327.612 324.83 326.862 322.497 325.362 C 320.164 323.862 317.664 321.445 314.997 318.112 L 228.997 204.112 L 216.497 194.612 L 128.997 79.112 C 126.33 75.779 125.164 72.195 125.497 68.362 C 125.83 64.529 127.33 61.195 129.997 58.362 C 132.664 55.529 136.164 54.112 140.497 54.112 C 144.83 54.112 148.497 55.612 151.497 58.612 L 234.997 169.612 L 248.497 180.112 L 340.997 303.112 C 345.33 308.445 346.914 312.945 345.747 316.612 C 344.58 320.279 342.497 323.029 339.497 324.862 C 336.497 326.695 333.997 327.612 331.997 327.612 Z M 129.497 327.612 C 125.164 327.612 121.664 326.279 118.997 323.612 C 116.33 320.945 114.83 317.695 114.497 313.862 C 114.164 310.029 115.33 306.445 117.997 303.112 L 214.997 182.612 L 232.497 204.612 L 139.997 323.112 C 137.997 326.112 134.497 327.612 129.497 327.612 Z M 241.997 196.612 L 223.997 174.612 L 314.997 63.112 C 317.664 60.112 320.247 57.862 322.747 56.362 C 325.247 54.862 327.83 54.112 330.497 54.112 C 335.164 54.112 338.664 55.529 340.997 58.362 C 343.33 61.195 344.497 64.529 344.497 68.362 C 344.497 72.195 343.164 75.779 340.497 79.112 L 241.997 196.612 Z M 413.009 327.612 C 408.658 327.612 405.065 326.202 402.232 323.381 C 399.399 320.56 397.982 316.971 397.982 312.612 L 397.982 -47.888 C 397.982 -52.247 399.39 -55.836 402.205 -58.657 C 405.02 -61.478 408.604 -62.888 412.955 -62.888 C 417.306 -62.888 420.899 -61.478 423.732 -58.657 C 426.565 -55.836 427.982 -52.247 427.982 -47.888 L 427.982 312.612 C 427.982 316.971 426.574 320.56 423.759 323.381 C 420.943 326.202 417.36 327.612 413.009 327.612 Z M 739.616 327.612 C 735.186 327.612 731.554 326.165 728.721 323.27 C 725.888 320.375 724.471 316.823 724.471 312.612 L 724.471 178.112 C 724.471 155.969 720.248 137.755 711.802 123.469 C 703.356 109.184 691.855 98.469 677.299 91.326 C 662.743 84.183 646.3 80.612 627.971 80.612 C 610.136 80.612 594.029 84.039 579.652 90.893 C 565.275 97.747 553.9 107.126 545.528 119.03 C 537.157 130.934 532.971 144.461 532.971 159.612 L 507.971 159.612 C 509.304 138.945 515.471 120.362 526.471 103.862 C 537.471 87.362 551.804 74.362 569.471 64.862 C 587.138 55.362 606.638 50.612 627.971 50.612 C 652.115 50.612 673.708 55.5 692.751 65.277 C 711.794 75.054 726.842 89.387 737.893 108.277 C 748.945 127.167 754.471 150.445 754.471 178.112 L 754.471 312.612 C 754.471 316.823 753.038 320.375 750.171 323.27 C 747.304 326.165 743.786 327.612 739.616 327.612 Z M 517.971 327.612 C 513.638 327.612 510.054 326.23 507.221 323.467 C 504.388 320.704 502.971 317.086 502.971 312.612 L 502.971 69.112 C 502.971 64.497 504.388 60.843 507.221 58.15 C 510.054 55.458 513.638 54.112 517.971 54.112 C 522.638 54.112 526.304 55.458 528.971 58.15 C 531.638 60.843 532.971 64.497 532.971 69.112 L 532.971 312.612 C 532.971 317.086 531.638 320.704 528.971 323.467 C 526.304 326.23 522.638 327.612 517.971 327.612 Z M 912.446 330.612 C 895.113 330.612 876.946 327.445 857.946 321.112 C 838.946 314.779 823.113 304.112 810.446 289.112 C 807.779 285.779 806.696 282.195 807.196 278.362 C 807.696 274.529 809.779 271.279 813.446 268.612 C 816.779 266.279 820.363 265.445 824.196 266.112 C 828.029 266.779 831.113 268.612 833.446 271.612 C 843.113 282.945 854.863 290.862 868.696 295.362 C 882.529 299.862 897.613 302.112 913.946 302.112 C 941.946 302.112 961.779 297.112 973.446 287.112 C 985.113 277.112 990.946 265.445 990.946 252.112 C 990.946 239.112 984.696 228.362 972.196 219.862 C 959.696 211.362 940.446 205.279 914.446 201.612 C 881.113 196.945 856.446 187.945 840.446 174.612 C 824.446 161.279 816.446 145.779 816.446 128.112 C 816.446 111.445 820.613 97.362 828.946 85.862 C 837.279 74.362 848.696 65.695 863.196 59.862 C 877.696 54.029 894.279 51.112 912.946 51.112 C 935.613 51.112 954.779 55.195 970.446 63.362 C 986.113 71.529 998.779 82.445 1008.446 96.112 C 1011.113 99.445 1012.029 103.029 1011.196 106.862 C 1010.363 110.695 1007.779 113.779 1003.446 116.112 C 1000.113 117.779 996.613 118.279 992.946 117.612 C 989.279 116.945 986.113 114.945 983.446 111.612 C 975.113 100.945 965.029 92.862 953.196 87.362 C 941.363 81.862 927.613 79.112 911.946 79.112 C 890.946 79.112 874.613 83.612 862.946 92.612 C 851.279 101.612 845.446 112.445 845.446 125.112 C 845.446 133.779 847.863 141.362 852.696 147.862 C 857.529 154.362 865.446 159.862 876.446 164.362 C 887.446 168.862 902.113 172.445 920.446 175.112 C 945.446 178.445 965.196 184.112 979.696 192.112 C 994.196 200.112 1004.529 209.362 1010.696 219.862 C 1016.863 230.362 1019.946 241.612 1019.946 253.612 C 1019.946 269.279 1014.946 282.945 1004.946 294.612 C 994.946 306.279 981.779 315.195 965.446 321.362 C 949.113 327.529 931.446 330.612 912.446 330.612 Z M 1092.459 327.612 C 1088.126 327.612 1084.542 326.195 1081.709 323.362 C 1078.876 320.529 1077.459 316.945 1077.459 312.612 L 1077.459 69.112 C 1077.459 64.445 1078.876 60.779 1081.709 58.112 C 1084.542 55.445 1088.126 54.112 1092.459 54.112 C 1097.126 54.112 1100.792 55.445 1103.459 58.112 C 1106.126 60.779 1107.459 64.445 1107.459 69.112 L 1107.459 312.612 C 1107.459 316.945 1106.126 320.529 1103.459 323.362 C 1100.792 326.195 1097.126 327.612 1092.459 327.612 Z M 1091.887 -3.388 C 1085.602 -3.388 1080.209 -5.667 1075.709 -10.224 C 1071.209 -14.782 1068.959 -20.337 1068.959 -26.888 C 1068.959 -34.555 1071.376 -40.305 1076.209 -44.138 C 1081.042 -47.971 1086.443 -49.888 1092.412 -49.888 C 1098.11 -49.888 1103.376 -47.971 1108.209 -44.138 C 1113.042 -40.305 1115.459 -34.555 1115.459 -26.888 C 1115.459 -20.337 1113.173 -14.782 1108.602 -10.224 C 1104.031 -5.667 1098.459 -3.388 1091.887 -3.388 Z M 1312.301 330.612 C 1285.093 330.612 1260.985 324.612 1239.976 312.612 C 1218.968 300.612 1202.464 284.112 1190.464 263.112 C 1178.464 242.112 1172.464 218.112 1172.464 191.112 C 1172.464 163.779 1178.631 139.612 1190.964 118.612 C 1203.297 97.612 1220.047 81.112 1241.214 69.112 C 1262.381 57.112 1286.131 51.112 1312.464 51.112 C 1339.797 51.112 1363.881 57.112 1384.714 69.112 C 1405.547 81.112 1421.964 97.612 1433.964 118.612 C 1445.964 139.612 1451.964 163.779 1451.964 191.112 L 1434.464 211.112 C 1434.464 234.322 1429.267 254.944 1418.873 272.979 C 1408.479 291.014 1394.146 305.128 1375.873 315.322 C 1357.6 325.515 1336.41 330.612 1312.301 330.612 Z M 1314.464 432.112 C 1286.797 432.112 1263.214 426.945 1243.714 416.612 C 1224.214 406.279 1208.131 393.112 1195.464 377.112 C 1192.797 373.779 1191.464 370.279 1191.464 366.612 C 1191.464 362.945 1193.131 359.862 1196.464 357.362 C 1199.797 354.862 1203.714 353.945 1208.214 354.612 C 1212.714 355.279 1216.131 357.445 1218.464 361.112 C 1228.797 373.445 1241.964 383.695 1257.964 391.862 C 1273.964 400.029 1292.797 404.112 1314.464 404.112 C 1335.131 404.112 1353.547 399.112 1369.714 389.112 C 1385.881 379.112 1398.631 365.362 1407.964 347.862 C 1417.297 330.362 1421.964 310.779 1421.964 289.112 L 1421.964 209.612 L 1435.464 191.112 L 1451.964 191.112 L 1451.964 289.112 C 1451.964 316.207 1445.964 340.542 1433.964 362.117 C 1421.964 383.692 1405.631 400.752 1384.964 413.296 C 1364.297 425.84 1340.797 432.112 1314.464 432.112 Z M 1312.486 302.612 C 1333.805 302.612 1352.684 297.865 1369.123 288.371 C 1385.562 278.876 1398.479 265.71 1407.873 248.871 C 1417.267 232.032 1421.964 212.73 1421.964 190.966 C 1421.964 169.201 1417.265 149.845 1407.868 132.898 C 1398.471 115.951 1385.549 102.749 1369.104 93.294 C 1352.659 83.839 1333.775 79.112 1312.45 79.112 C 1291.126 79.112 1272.158 83.839 1255.547 93.294 C 1238.936 102.749 1225.936 115.951 1216.547 132.898 C 1207.158 149.845 1202.464 169.201 1202.464 190.966 C 1202.464 212.73 1207.161 232.032 1216.555 248.871 C 1225.95 265.71 1238.957 278.876 1255.578 288.371 C 1272.199 297.865 1291.168 302.612 1312.486 302.612 Z M 1521.957 207.612 C 1517.624 207.612 1514.04 206.202 1511.207 203.381 C 1508.374 200.56 1506.957 196.971 1506.957 192.612 L 1506.957 -47.888 C 1506.957 -52.503 1508.374 -56.157 1511.207 -58.85 C 1514.04 -61.542 1517.624 -62.888 1521.957 -62.888 C 1526.624 -62.888 1530.29 -61.542 1532.957 -58.85 C 1535.624 -56.157 1536.957 -52.503 1536.957 -47.888 L 1536.957 192.612 C 1536.957 196.971 1535.624 200.56 1532.957 203.381 C 1530.29 206.202 1526.624 207.612 1521.957 207.612 Z M 1743.603 327.612 C 1739.172 327.612 1735.54 326.165 1732.707 323.27 C 1729.874 320.375 1728.457 316.823 1728.457 312.612 L 1728.457 178.112 C 1728.457 155.969 1724.234 137.755 1715.788 123.469 C 1707.342 109.184 1695.841 98.469 1681.286 91.326 C 1666.73 84.183 1650.287 80.612 1631.957 80.612 C 1614.122 80.612 1598.016 84.039 1583.638 90.893 C 1569.261 97.747 1557.886 107.126 1549.515 119.03 C 1541.143 130.934 1536.957 144.461 1536.957 159.612 L 1511.957 159.612 C 1513.29 138.945 1519.457 120.362 1530.457 103.862 C 1541.457 87.362 1555.79 74.362 1573.457 64.862 C 1591.124 55.362 1610.624 50.612 1631.957 50.612 C 1656.101 50.612 1677.695 55.5 1696.738 65.277 C 1715.781 75.054 1730.828 89.387 1741.88 108.277 C 1752.931 127.167 1758.457 150.445 1758.457 178.112 L 1758.457 312.612 C 1758.457 316.823 1757.024 320.375 1754.157 323.27 C 1751.29 326.165 1747.772 327.612 1743.603 327.612 Z M 1521.957 327.612 C 1517.624 327.612 1514.04 326.23 1511.207 323.467 C 1508.374 320.704 1506.957 317.086 1506.957 312.612 L 1506.957 69.112 C 1506.957 64.497 1508.374 60.843 1511.207 58.15 C 1514.04 55.458 1517.624 54.112 1521.957 54.112 C 1526.624 54.112 1530.29 55.458 1532.957 58.15 C 1535.624 60.843 1536.957 64.497 1536.957 69.112 L 1536.957 312.612 C 1536.957 317.086 1535.624 320.704 1532.957 323.467 C 1530.29 326.23 1526.624 327.612 1521.957 327.612 Z M 1935.433 327.612 C 1917.1 327.279 1900.766 323.029 1886.433 314.862 C 1872.1 306.695 1860.933 295.362 1852.933 280.862 C 1844.933 266.362 1840.933 249.945 1840.933 231.612 L 1840.933 -17.388 C 1840.933 -21.892 1842.333 -25.601 1845.133 -28.516 C 1847.933 -31.431 1851.6 -32.888 1856.133 -32.888 C 1860.666 -32.888 1864.35 -31.431 1867.183 -28.516 C 1870.016 -25.601 1871.433 -21.892 1871.433 -17.388 L 1871.433 231.612 C 1871.433 250.81 1877.461 266.526 1889.517 278.761 C 1901.573 290.995 1917.045 297.112 1935.933 297.112 L 1946.933 297.112 C 1951.526 297.112 1955.257 298.552 1958.127 301.433 C 1960.998 304.314 1962.433 307.981 1962.433 312.433 C 1962.433 316.886 1961.016 320.529 1958.183 323.362 C 1955.35 326.195 1951.6 327.612 1946.933 327.612 L 1935.433 327.612 Z M 1801.933 91.112 C 1798.076 91.112 1794.861 89.826 1792.29 87.253 C 1789.719 84.68 1788.433 81.497 1788.433 77.706 C 1788.433 73.643 1789.719 70.362 1792.29 67.862 C 1794.861 65.362 1798.076 64.112 1801.933 64.112 L 1937.433 64.112 C 1941.29 64.112 1944.505 65.362 1947.076 67.862 C 1949.647 70.362 1950.933 73.643 1950.933 77.706 C 1950.933 81.497 1949.647 84.68 1947.076 87.253 C 1944.505 89.826 1941.29 91.112 1937.433 91.112 L 1801.933 91.112 Z M 2097.903 330.612 C 2080.57 330.612 2062.403 327.445 2043.403 321.112 C 2024.403 314.779 2008.57 304.112 1995.903 289.112 C 1993.236 285.779 1992.153 282.195 1992.653 278.362 C 1993.153 274.529 1995.236 271.279 1998.903 268.612 C 2002.236 266.279 2005.82 265.445 2009.653 266.112 C 2013.486 266.779 2016.57 268.612 2018.903 271.612 C 2028.57 282.945 2040.32 290.862 2054.153 295.362 C 2067.986 299.862 2083.07 302.112 2099.403 302.112 C 2127.403 302.112 2147.236 297.112 2158.903 287.112 C 2170.57 277.112 2176.403 265.445 2176.403 252.112 C 2176.403 239.112 2170.153 228.362 2157.653 219.862 C 2145.153 211.362 2125.903 205.279 2099.903 201.612 C 2066.57 196.945 2041.903 187.945 2025.903 174.612 C 2009.903 161.279 2001.903 145.779 2001.903 128.112 C 2001.903 111.445 2006.07 97.362 2014.403 85.862 C 2022.736 74.362 2034.153 65.695 2048.653 59.862 C 2063.153 54.029 2079.736 51.112 2098.403 51.112 C 2121.07 51.112 2140.236 55.195 2155.903 63.362 C 2171.57 71.529 2184.236 82.445 2193.903 96.112 C 2196.57 99.445 2197.486 103.029 2196.653 106.862 C 2195.82 110.695 2193.236 113.779 2188.903 116.112 C 2185.57 117.779 2182.07 118.279 2178.403 117.612 C 2174.736 116.945 2171.57 114.945 2168.903 111.612 C 2160.57 100.945 2150.486 92.862 2138.653 87.362 C 2126.82 81.862 2113.07 79.112 2097.403 79.112 C 2076.403 79.112 2060.07 83.612 2048.403 92.612 C 2036.736 101.612 2030.903 112.445 2030.903 125.112 C 2030.903 133.779 2033.32 141.362 2038.153 147.862 C 2042.986 154.362 2050.903 159.862 2061.903 164.362 C 2072.903 168.862 2087.57 172.445 2105.903 175.112 C 2130.903 178.445 2150.653 184.112 2165.153 192.112 C 2179.653 200.112 2189.986 209.362 2196.153 219.862 C 2202.32 230.362 2205.403 241.612 2205.403 253.612 C 2205.403 269.279 2200.403 282.945 2190.403 294.612 C 2180.403 306.279 2167.236 315.195 2150.903 321.362 C 2134.57 327.529 2116.903 330.612 2097.903 330.612 Z" style="stroke-linecap: round; stroke-miterlimit: 1; stroke-width: 14px; fill: rgba(47, 47, 47, 0.9);" transform="matrix(1, 0, 0, 1, 4.547473508864641e-13, 0)"/>
  <path d="M -714.3 -22.919 C -716.8 -23.119 -884 -6.819 -892.8 -5.919 C -901.9 -5.019 -910.156 -3.178 -912.3 -2.719 C -937.547 2.679 -937.8 39.981 -937.8 39.981 C -937.8 39.981 -938.1 362.381 -937.3 368.981 C -935.8 380.181 -933.7 389.481 -932.4 390.781 C -931.8 391.381 -931.3 392.581 -931.3 393.481 C -931.3 394.281 -929.7 398.381 -927.8 402.381 C -917 424.781 -901.1 443.981 -881.6 458.081 C -870.5 466.081 -868.6 467.181 -855 473.481 C -847 477.181 -843.3 479.481 -843.3 480.581 C -843.3 482.881 -847.6 492.381 -850.8 497.081 C -852.3 499.181 -855.3 505.481 -855.3 505.481 L -1008.3 505.481 L -1008.3 559.781 L -424.3 558.481 L -424.3 505.481 C -424.3 505.481 -578.3 505.181 -579.4 504.281 C -581.1 502.881 -585.1 496.581 -590.7 486.281 L -594.3 479.581 L -592.1 478.081 C -590.9 477.181 -589.2 476.481 -588.5 476.481 C -587.7 476.481 -585.4 475.581 -583.4 474.581 C -581.4 473.481 -576.7 471.281 -573 469.581 C -569.3 467.881 -564.3 465.281 -562 463.681 C -559.7 461.981 -555.3 459.081 -552.2 457.081 C -528.6 441.881 -506.9 409.381 -499.7 378.481 C -496.5 364.681 -496.2 346.681 -496.6 192.481 C -496.9 55.081 -497.1 38.381 -498.5 32.981 C -505.6 6.881 -515.1 -3.319 -534.3 -5.019 C -538.4 -5.419 -551.2 -6.819 -562.8 -8.119 C -574.3 -9.419 -711.8 -22.719 -714.3 -22.919 Z M -754.702 32.52 C -750.773 34.08 -746 37.181 -744.1 39.481 C -736.9 47.881 -737.3 37.481 -737.3 197.581 L -737.3 341.481 L -916 341.481 C -916 341.481 -917.2 228.681 -917.3 165.881 L -917.5 51.781 L -915.4 46.881 C -911.7 38.581 -903.5 32.181 -894.4 30.581 C -892.5 30.281 -771.471 29.56 -771.471 29.56 C -771.471 29.56 -759.978 30.426 -754.702 32.52 Z M -531.4 33.481 C -526.2 36.081 -520.5 41.981 -518.2 46.981 C -516.4 50.781 -516.3 341.481 -516.3 341.481 L -697.3 341.481 L -697.3 197.181 C -697.3 102.181 -696.9 51.681 -696.3 49.281 C -694.6 43.381 -693.882 39.934 -690.223 36.336 C -687.773 33.926 -683.419 32.386 -679.8 30.981 C -671.719 27.843 -541.9 30.281 -539.6 30.681 C -537.3 31.081 -533.6 32.281 -531.4 33.481 Z M -635.1 492.881 C -632 499.481 -630.3 503.981 -630.7 505.081 C -631.3 506.581 -804.4 505.281 -804.9 503.981 C -805.4 502.681 -799.3 490.981 -794.8 484.681 L -793.2 482.481 L -716.7 482.481 L -640.2 482.481 L -635.1 492.881 Z" style="stroke-width: 6px; stroke: rgb(27, 49, 59); stroke-opacity: 0; fill: rgba(0, 0, 0, 0);" transform="matrix(1, 0, 0, 1, 9.094947017729282e-13, 0)"/>
</svg>