<?xml version="1.0" encoding="utf-8"?>
<svg viewBox="-1008.3 -224.305 3226.3071 784.086" width="3226.3071" height="784.086" xmlns="http://www.w3.org/2000/svg">
  <path style="fill: rgb(255, 222, 87); stroke-width: 6px; stroke: rgb(255, 222, 87);" d="M -896.375 31.529 C -855.127 29.328 -781.166 30.765 -767.218 30.956 C -753.27 31.147 -751.589 32.602 -746.011 36.879 C -742.576 39.512 -740.133 44.015 -740.087 48.343 C -738.991 150.869 -739.132 342.96 -739.132 342.96 C -739.132 342.96 -918.156 342.769 -917.774 342.577 C -917.392 342.385 -919.969 147.52 -919.302 52.357 C -919.262 46.722 -915.762 40.746 -911.66 37.073 C -908.014 33.808 -901.381 31.796 -896.375 31.529 Z" transform="matrix(1, 0, 0, 1, 2.2737367544323206e-13, 0)"/>
  <path d="M -821.7 -222.519 C -830.4 -219.119 -909.1 -21.119 -909.8 -20.019 C -910.4 -18.919 -913.762 -10.933 -913.762 -10.933 C -913.762 -10.933 -911.269 -11.91 -906.491 -16.119 C -897.948 -23.644 -878.8 -34.719 -864.8 -38.519 C -853.9 -41.519 -847.3 -42.319 -809.8 -44.919 C -768.7 -47.919 -750 -49.519 -749.4 -50.119 C -749.1 -50.319 -748.8 -52.819 -748.6 -55.519 C -748.2 -61.819 -745.6 -67.119 -740.4 -71.819 C -733.7 -77.919 -731 -78.819 -718.6 -79.319 C -705.8 -79.819 -700.7 -78.619 -694.2 -73.419 C -688.7 -69.119 -685.6 -63.219 -684.8 -55.919 L -684.1 -49.819 C -684.1 -49.819 -636.481 -46.549 -624.081 -45.749 C -594.381 -43.649 -584.964 -40.877 -573.337 -38.06 C -558.844 -34.548 -538.7 -25.719 -525.4 -14.919 L -522 -12.119 L -523.778 -17.28 C -524.378 -20.28 -592.2 -193.319 -593.3 -196.019 C -594.4 -198.819 -600.7 -213.519 -604 -216.619 C -612.3 -224.619 -602.6 -224.019 -715.8 -224.219 C -813.3 -224.419 -817 -224.419 -821.7 -222.519 Z M -617.8 -204.019 C -617.8 -204.019 -594.3 -94.619 -594.3 -94.219 C -594.3 -93.819 -839.2 -94.019 -839.2 -94.019 C -839.2 -94.019 -816.2 -200.819 -815.7 -202.819 C -815.2 -204.419 -809.8 -204.519 -716.5 -204.319 L -617.8 -204.019 Z" style="fill: rgb(100, 100, 100); stroke-linecap: round; stroke-width: 6px; stroke: rgba(0, 0, 0, 0.247);" fill="#000000" transform="matrix(1, 0, 0, 1, 2.2737367544323206e-13, 0)"/>
  <path style="fill: rgb(255, 222, 87); stroke-width: 6px; stroke: rgb(255, 222, 87);" d="M -697.095 340.825 C -697.095 340.825 -697.095 51.314 -697.095 50.415 C -697.095 49.516 -692.951 37.808 -688.106 33.774 C -683.627 30.044 -671.92 28.387 -671.47 28.387 C -671.021 28.387 -590.801 26.075 -541.017 28.267 C -536.735 28.456 -526.177 33.078 -523.568 36.479 C -520.825 40.056 -518.623 49.066 -518.623 49.066 L -515.476 342.623 C -515.476 342.623 -683.842 340.679 -697.095 340.825 Z" fill="#000000" transform="matrix(1, 0, 0, 1, 2.2737367544323206e-13, 0)"/>
  <path style="fill: rgb(255, 222, 87); stroke-width: 6px; stroke: rgb(255, 222, 87);" d="M -914.056 -10.148 C -914.056 -10.148 -922.777 4.184 -922.427 3.483 C -922.077 2.782 -911.515 -3.433 -905.093 -4.568 C -841.022 -15.891 -715.891 -21.855 -715.891 -21.855 C -715.891 -21.855 -587.785 -14.846 -525.796 -4.642 C -520.079 -3.701 -513.608 3.553 -513.608 3.553 L -521.893 -12.022 C -521.893 -12.022 -532.489 -20.726 -539.333 -24.307 C -550.448 -30.123 -560.991 -34.992 -573.11 -38.231 C -587.908 -42.186 -603.859 -44.268 -619.079 -45.993 C -639.657 -48.325 -684.134 -50.226 -684.134 -50.226 C -684.134 -50.226 -684.331 -56.643 -685.876 -60.432 C -687.463 -64.323 -688.525 -69.125 -691.628 -71.838 C -695.073 -74.85 -699.443 -77.15 -703.88 -78.269 C -710.279 -79.883 -718.61 -79.634 -725.113 -78.511 C -728.622 -77.905 -731.017 -79.546 -736.906 -74.57 C -739.151 -72.673 -744.193 -69.129 -743.843 -69.129 C -743.69 -69.129 -746.768 -66.674 -748.451 -62.297 C -750.628 -56.636 -752.529 -49.331 -751.838 -49.331 C -750.612 -49.331 -772.896 -47.541 -772.896 -47.541 C -772.896 -47.541 -797.675 -46.544 -811.361 -45.329 C -824.754 -44.14 -848.324 -42.662 -857.184 -40.96 C -868.428 -38.8 -878.092 -34.192 -888.332 -29.722 C -897.475 -25.731 -914.056 -10.148 -914.056 -10.148 Z" transform="matrix(1, 0, 0, 1, 2.2737367544323206e-13, 0)"/>
  <path d="M -852.8 262.381 C -858 263.781 -861.9 266.281 -866.1 270.981 C -880.7 287.481 -867.6 314.981 -845.3 314.781 C -831.4 314.681 -820.5 304.281 -819.5 290.281 C -818.7 279.581 -824.5 268.981 -833.7 264.281 C -838.1 262.081 -847.9 261.081 -852.8 262.381 Z" style="fill: rgb(69, 132, 182);" fill="#000000" stroke="none" transform="matrix(1, 0, 0, 1, 2.2737367544323206e-13, 0)"/>
  <path d="M -599.8 263.081 C -609 266.481 -616.7 277.781 -616.7 287.981 C -616.7 308.081 -594.4 321.581 -577.3 311.881 C -566.7 305.881 -561.2 294.881 -563.3 283.781 C -565.1 273.981 -572 265.781 -581.2 262.681 C -585.8 261.081 -594.9 261.281 -599.8 263.081 Z" style="fill: rgb(69, 132, 182);" fill="#000000" stroke="none" transform="matrix(1, 0, 0, 1, 2.2737367544323206e-13, 0)"/>
  <path d="M -391.827 327.612 Q -398.354 327.612 -402.604 323.381 Q -406.854 319.15 -406.854 312.612 L -406.854 -47.888 Q -406.854 -54.426 -402.631 -58.657 Q -398.408 -62.888 -391.881 -62.888 Q -385.354 -62.888 -381.104 -58.657 Q -376.854 -54.426 -376.854 -47.888 L -376.854 312.612 Q -376.854 319.15 -381.077 323.381 Q -385.3 327.612 -391.827 327.612 Z M 74.635 327.612 Q 68.135 327.612 63.885 323.362 Q 59.635 319.112 59.635 312.612 L 59.635 168.112 Q 59.635 129.612 39.385 105.112 Q 19.135 80.612 -13.365 80.612 Q -47.865 80.612 -69.615 103.362 Q -91.365 126.112 -90.365 164.612 L -120.365 164.612 Q -119.365 130.112 -105.365 104.612 Q -91.365 79.112 -67.365 64.862 Q -43.365 50.612 -13.365 50.612 Q 17.135 50.612 40.135 65.612 Q 63.135 80.612 76.385 107.112 Q 89.635 133.612 89.635 168.112 L 89.635 312.612 Q 89.635 319.112 85.635 323.362 Q 81.635 327.612 74.635 327.612 Z M -286.865 327.612 Q -293.365 327.612 -297.615 323.362 Q -301.865 319.112 -301.865 312.612 L -301.865 69.112 Q -301.865 62.112 -297.615 58.112 Q -293.365 54.112 -286.865 54.112 Q -279.865 54.112 -275.865 58.112 Q -271.865 62.112 -271.865 69.112 L -271.865 312.612 Q -271.865 319.112 -275.865 323.362 Q -279.865 327.612 -286.865 327.612 Z M -105.365 327.612 Q -111.865 327.612 -116.115 323.362 Q -120.365 319.112 -120.365 312.612 L -120.365 168.112 Q -120.365 129.612 -140.615 105.112 Q -160.865 80.612 -193.365 80.612 Q -227.865 80.612 -249.865 102.612 Q -271.865 124.612 -271.865 159.612 L -296.865 159.612 Q -295.365 127.612 -281.615 103.112 Q -267.865 78.612 -244.865 64.612 Q -221.865 50.612 -193.365 50.612 Q -162.865 50.612 -139.865 65.612 Q -116.865 80.612 -103.615 107.112 Q -90.365 133.612 -90.365 168.112 L -90.365 312.612 Q -90.365 319.112 -94.365 323.362 Q -98.365 327.612 -105.365 327.612 Z M 344.601 327.612 Q 338.601 327.612 335.101 325.362 Q 331.601 323.112 327.601 318.112 L 241.601 204.112 L 229.101 194.612 L 141.601 79.112 Q 137.601 74.112 138.101 68.362 Q 138.601 62.612 142.601 58.362 Q 146.601 54.112 153.101 54.112 Q 159.601 54.112 164.101 58.612 L 247.601 169.612 L 261.101 180.112 L 353.601 303.112 Q 360.101 311.112 358.351 316.612 Q 356.601 322.112 352.101 324.862 Q 347.601 327.612 344.601 327.612 Z M 142.101 327.612 Q 135.601 327.612 131.601 323.612 Q 127.601 319.612 127.101 313.862 Q 126.601 308.112 130.601 303.112 L 227.601 182.612 L 245.101 204.612 L 152.601 323.112 Q 149.601 327.612 142.101 327.612 Z M 254.601 196.612 L 236.601 174.612 L 327.601 63.112 Q 331.601 58.612 335.351 56.362 Q 339.101 54.112 343.101 54.112 Q 350.101 54.112 353.601 58.362 Q 357.101 62.612 357.101 68.362 Q 357.101 74.112 353.101 79.112 Z M 425.613 327.612 Q 419.086 327.612 414.836 323.381 Q 410.586 319.15 410.586 312.612 L 410.586 -47.888 Q 410.586 -54.426 414.809 -58.657 Q 419.032 -62.888 425.559 -62.888 Q 432.086 -62.888 436.336 -58.657 Q 440.586 -54.426 440.586 -47.888 L 440.586 312.612 Q 440.586 319.15 436.363 323.381 Q 432.139 327.612 425.613 327.612 Z M 752.22 327.612 Q 745.575 327.612 741.325 323.27 Q 737.075 318.928 737.075 312.612 L 737.075 178.112 Q 737.075 144.898 724.406 123.469 Q 711.737 102.041 689.903 91.326 Q 668.069 80.612 640.575 80.612 Q 613.822 80.612 592.256 90.893 Q 570.69 101.174 558.132 119.03 Q 545.575 136.886 545.575 159.612 L 520.575 159.612 Q 522.575 128.612 539.075 103.862 Q 555.575 79.112 582.075 64.862 Q 608.575 50.612 640.575 50.612 Q 676.791 50.612 705.355 65.277 Q 733.92 79.942 750.497 108.277 Q 767.075 136.612 767.075 178.112 L 767.075 312.612 Q 767.075 318.928 762.775 323.27 Q 758.475 327.612 752.22 327.612 Z M 530.575 327.612 Q 524.075 327.612 519.825 323.467 Q 515.575 319.323 515.575 312.612 L 515.575 69.112 Q 515.575 62.189 519.825 58.15 Q 524.075 54.112 530.575 54.112 Q 537.575 54.112 541.575 58.15 Q 545.575 62.189 545.575 69.112 L 545.575 312.612 Q 545.575 319.323 541.575 323.467 Q 537.575 327.612 530.575 327.612 Z M 925.05 330.612 Q 899.05 330.612 870.55 321.112 Q 842.05 311.612 823.05 289.112 Q 819.05 284.112 819.8 278.362 Q 820.55 272.612 826.05 268.612 Q 831.05 265.112 836.8 266.112 Q 842.55 267.112 846.05 271.612 Q 860.55 288.612 881.3 295.362 Q 902.05 302.112 926.55 302.112 Q 968.55 302.112 986.05 287.112 Q 1003.55 272.112 1003.55 252.112 Q 1003.55 232.612 984.8 219.862 Q 966.05 207.112 927.05 201.612 Q 877.05 194.612 853.05 174.612 Q 829.05 154.612 829.05 128.112 Q 829.05 103.112 841.55 85.862 Q 854.05 68.612 875.8 59.862 Q 897.55 51.112 925.55 51.112 Q 959.55 51.112 983.05 63.362 Q 1006.55 75.612 1021.05 96.112 Q 1025.05 101.112 1023.8 106.862 Q 1022.55 112.612 1016.05 116.112 Q 1011.05 118.612 1005.55 117.612 Q 1000.05 116.612 996.05 111.612 Q 983.55 95.612 965.8 87.362 Q 948.05 79.112 924.55 79.112 Q 893.05 79.112 875.55 92.612 Q 858.05 106.112 858.05 125.112 Q 858.05 138.112 865.3 147.862 Q 872.55 157.612 889.05 164.362 Q 905.55 171.112 933.05 175.112 Q 970.55 180.112 992.3 192.112 Q 1014.05 204.112 1023.3 219.862 Q 1032.55 235.612 1032.55 253.612 Q 1032.55 277.112 1017.55 294.612 Q 1002.55 312.112 978.05 321.362 Q 953.55 330.612 925.05 330.612 Z M 1105.063 327.612 Q 1098.563 327.612 1094.313 323.362 Q 1090.063 319.112 1090.063 312.612 L 1090.063 69.112 Q 1090.063 62.112 1094.313 58.112 Q 1098.563 54.112 1105.063 54.112 Q 1112.063 54.112 1116.063 58.112 Q 1120.063 62.112 1120.063 69.112 L 1120.063 312.612 Q 1120.063 319.112 1116.063 323.362 Q 1112.063 327.612 1105.063 327.612 Z M 1104.491 -3.388 Q 1095.063 -3.388 1088.313 -10.224 Q 1081.563 -17.061 1081.563 -26.888 Q 1081.563 -38.388 1088.813 -44.138 Q 1096.063 -49.888 1105.016 -49.888 Q 1113.563 -49.888 1120.813 -44.138 Q 1128.063 -38.388 1128.063 -26.888 Q 1128.063 -17.061 1121.206 -10.224 Q 1114.349 -3.388 1104.491 -3.388 Z M 1324.905 330.612 Q 1284.093 330.612 1252.58 312.612 Q 1221.068 294.612 1203.068 263.112 Q 1185.068 231.612 1185.068 191.112 Q 1185.068 150.112 1203.568 118.612 Q 1222.068 87.112 1253.818 69.112 Q 1285.568 51.112 1325.068 51.112 Q 1366.068 51.112 1397.318 69.112 Q 1428.568 87.112 1446.568 118.612 Q 1464.568 150.112 1464.568 191.112 L 1447.068 211.112 Q 1447.068 245.927 1431.477 272.979 Q 1415.886 300.031 1388.477 315.322 Q 1361.068 330.612 1324.905 330.612 Z M 1327.068 432.112 Q 1285.568 432.112 1256.318 416.612 Q 1227.068 401.112 1208.068 377.112 Q 1204.068 372.112 1204.068 366.612 Q 1204.068 361.112 1209.068 357.362 Q 1214.068 353.612 1220.818 354.612 Q 1227.568 355.612 1231.068 361.112 Q 1246.568 379.612 1270.568 391.862 Q 1294.568 404.112 1327.068 404.112 Q 1358.068 404.112 1382.318 389.112 Q 1406.568 374.112 1420.568 347.862 Q 1434.568 321.612 1434.568 289.112 L 1434.568 209.612 L 1448.068 191.112 L 1464.568 191.112 L 1464.568 289.112 Q 1464.568 329.754 1446.568 362.117 Q 1428.568 394.48 1397.568 413.296 Q 1366.568 432.112 1327.068 432.112 Z M 1325.09 302.612 Q 1357.068 302.612 1381.727 288.371 Q 1406.386 274.129 1420.477 248.871 Q 1434.568 223.612 1434.568 190.966 Q 1434.568 158.319 1420.472 132.898 Q 1406.376 107.477 1381.708 93.294 Q 1357.041 79.112 1325.054 79.112 Q 1293.068 79.112 1268.151 93.294 Q 1243.234 107.477 1229.151 132.898 Q 1215.068 158.319 1215.068 190.966 Q 1215.068 223.612 1229.159 248.871 Q 1243.251 274.129 1268.182 288.371 Q 1293.113 302.612 1325.09 302.612 Z M 1534.561 207.612 Q 1528.061 207.612 1523.811 203.381 Q 1519.561 199.15 1519.561 192.612 L 1519.561 -47.888 Q 1519.561 -54.811 1523.811 -58.85 Q 1528.061 -62.888 1534.561 -62.888 Q 1541.561 -62.888 1545.561 -58.85 Q 1549.561 -54.811 1549.561 -47.888 L 1549.561 192.612 Q 1549.561 199.15 1545.561 203.381 Q 1541.561 207.612 1534.561 207.612 Z M 1756.207 327.612 Q 1749.561 327.612 1745.311 323.27 Q 1741.061 318.928 1741.061 312.612 L 1741.061 178.112 Q 1741.061 144.898 1728.392 123.469 Q 1715.723 102.041 1693.89 91.326 Q 1672.056 80.612 1644.561 80.612 Q 1617.809 80.612 1596.242 90.893 Q 1574.676 101.174 1562.119 119.03 Q 1549.561 136.886 1549.561 159.612 L 1524.561 159.612 Q 1526.561 128.612 1543.061 103.862 Q 1559.561 79.112 1586.061 64.862 Q 1612.561 50.612 1644.561 50.612 Q 1680.777 50.612 1709.342 65.277 Q 1737.906 79.942 1754.484 108.277 Q 1771.061 136.612 1771.061 178.112 L 1771.061 312.612 Q 1771.061 318.928 1766.761 323.27 Q 1762.461 327.612 1756.207 327.612 Z M 1534.561 327.612 Q 1528.061 327.612 1523.811 323.467 Q 1519.561 319.323 1519.561 312.612 L 1519.561 69.112 Q 1519.561 62.189 1523.811 58.15 Q 1528.061 54.112 1534.561 54.112 Q 1541.561 54.112 1545.561 58.15 Q 1549.561 62.189 1549.561 69.112 L 1549.561 312.612 Q 1549.561 319.323 1545.561 323.467 Q 1541.561 327.612 1534.561 327.612 Z M 1948.037 327.612 Q 1920.537 327.112 1899.037 314.862 Q 1877.537 302.612 1865.537 280.862 Q 1853.537 259.112 1853.537 231.612 L 1853.537 -17.388 Q 1853.537 -24.144 1857.737 -28.516 Q 1861.937 -32.888 1868.737 -32.888 Q 1875.537 -32.888 1879.787 -28.516 Q 1884.037 -24.144 1884.037 -17.388 L 1884.037 231.612 Q 1884.037 260.409 1902.121 278.761 Q 1920.205 297.112 1948.537 297.112 L 1959.537 297.112 Q 1966.426 297.112 1970.731 301.433 Q 1975.037 305.755 1975.037 312.433 Q 1975.037 319.112 1970.787 323.362 Q 1966.537 327.612 1959.537 327.612 Z M 1814.537 91.112 Q 1808.751 91.112 1804.894 87.253 Q 1801.037 83.393 1801.037 77.706 Q 1801.037 71.612 1804.894 67.862 Q 1808.751 64.112 1814.537 64.112 L 1950.037 64.112 Q 1955.823 64.112 1959.68 67.862 Q 1963.537 71.612 1963.537 77.706 Q 1963.537 83.393 1959.68 87.253 Q 1955.823 91.112 1950.037 91.112 Z M 2110.507 330.612 Q 2084.507 330.612 2056.007 321.112 Q 2027.507 311.612 2008.507 289.112 Q 2004.507 284.112 2005.257 278.362 Q 2006.007 272.612 2011.507 268.612 Q 2016.507 265.112 2022.257 266.112 Q 2028.007 267.112 2031.507 271.612 Q 2046.007 288.612 2066.757 295.362 Q 2087.507 302.112 2112.007 302.112 Q 2154.007 302.112 2171.507 287.112 Q 2189.007 272.112 2189.007 252.112 Q 2189.007 232.612 2170.257 219.862 Q 2151.507 207.112 2112.507 201.612 Q 2062.507 194.612 2038.507 174.612 Q 2014.507 154.612 2014.507 128.112 Q 2014.507 103.112 2027.007 85.862 Q 2039.507 68.612 2061.257 59.862 Q 2083.007 51.112 2111.007 51.112 Q 2145.007 51.112 2168.507 63.362 Q 2192.007 75.612 2206.507 96.112 Q 2210.507 101.112 2209.257 106.862 Q 2208.007 112.612 2201.507 116.112 Q 2196.507 118.612 2191.007 117.612 Q 2185.507 116.612 2181.507 111.612 Q 2169.007 95.612 2151.257 87.362 Q 2133.507 79.112 2110.007 79.112 Q 2078.507 79.112 2061.007 92.612 Q 2043.507 106.112 2043.507 125.112 Q 2043.507 138.112 2050.757 147.862 Q 2058.007 157.612 2074.507 164.362 Q 2091.007 171.112 2118.507 175.112 Q 2156.007 180.112 2177.757 192.112 Q 2199.507 204.112 2208.757 219.862 Q 2218.007 235.612 2218.007 253.612 Q 2218.007 277.112 2203.007 294.612 Q 2188.007 312.112 2163.507 321.362 Q 2139.007 330.612 2110.507 330.612 Z" style="fill: rgb(255, 255, 255); stroke-linecap: round; stroke-miterlimit: 1; stroke-width: 14px;" transform="matrix(1, 0, 0, 1, 2.2737367544323206e-13, 0)"/>
  <path d="M -714.3 -22.919 C -716.8 -23.119 -884 -6.819 -892.8 -5.919 C -901.9 -5.019 -910.156 -3.178 -912.3 -2.719 C -937.547 2.679 -937.8 39.981 -937.8 39.981 C -937.8 39.981 -938.1 362.381 -937.3 368.981 C -935.8 380.181 -933.7 389.481 -932.4 390.781 C -931.8 391.381 -931.3 392.581 -931.3 393.481 C -931.3 394.281 -929.7 398.381 -927.8 402.381 C -917 424.781 -901.1 443.981 -881.6 458.081 C -870.5 466.081 -868.6 467.181 -855 473.481 C -847 477.181 -843.3 479.481 -843.3 480.581 C -843.3 482.881 -847.6 492.381 -850.8 497.081 C -852.3 499.181 -855.3 505.481 -855.3 505.481 L -1008.3 505.481 L -1008.3 559.781 L -424.3 558.481 L -424.3 505.481 C -424.3 505.481 -578.3 505.181 -579.4 504.281 C -581.1 502.881 -585.1 496.581 -590.7 486.281 L -594.3 479.581 L -592.1 478.081 C -590.9 477.181 -589.2 476.481 -588.5 476.481 C -587.7 476.481 -585.4 475.581 -583.4 474.581 C -581.4 473.481 -576.7 471.281 -573 469.581 C -569.3 467.881 -564.3 465.281 -562 463.681 C -559.7 461.981 -555.3 459.081 -552.2 457.081 C -528.6 441.881 -506.9 409.381 -499.7 378.481 C -496.5 364.681 -496.2 346.681 -496.6 192.481 C -496.9 55.081 -497.1 38.381 -498.5 32.981 C -505.6 6.881 -515.1 -3.319 -534.3 -5.019 C -538.4 -5.419 -551.2 -6.819 -562.8 -8.119 C -574.3 -9.419 -711.8 -22.719 -714.3 -22.919 Z M -754.702 32.52 C -750.773 34.08 -746 37.181 -744.1 39.481 C -736.9 47.881 -737.3 37.481 -737.3 197.581 L -737.3 341.481 L -916 341.481 C -916 341.481 -917.2 228.681 -917.3 165.881 L -917.5 51.781 L -915.4 46.881 C -911.7 38.581 -903.5 32.181 -894.4 30.581 C -892.5 30.281 -771.471 29.56 -771.471 29.56 C -771.471 29.56 -759.978 30.426 -754.702 32.52 Z M -531.4 33.481 C -526.2 36.081 -520.5 41.981 -518.2 46.981 C -516.4 50.781 -516.3 341.481 -516.3 341.481 L -697.3 341.481 L -697.3 197.181 C -697.3 102.181 -696.9 51.681 -696.3 49.281 C -694.6 43.381 -693.882 39.934 -690.223 36.336 C -687.773 33.926 -683.419 32.386 -679.8 30.981 C -671.719 27.843 -541.9 30.281 -539.6 30.681 C -537.3 31.081 -533.6 32.281 -531.4 33.481 Z M -635.1 492.881 C -632 499.481 -630.3 503.981 -630.7 505.081 C -631.3 506.581 -804.4 505.281 -804.9 503.981 C -805.4 502.681 -799.3 490.981 -794.8 484.681 L -793.2 482.481 L -716.7 482.481 L -640.2 482.481 L -635.1 492.881 Z" style="stroke-width: 6px; stroke: rgb(27, 49, 59); stroke-opacity: 0; fill: rgba(0, 0, 0, 0);" transform="matrix(1, 0, 0, 1, 2.2737367544323206e-13, 0)"/>
</svg>